<svg width="21" height="22" viewBox="0 0 21 22" fill="none" xmlns="http://www.w3.org/2000/svg">
<g clip-path="url(#clip0_2625_19819)">
<path d="M10.8735 4.523C12.3565 4.523 13.6855 5.035 14.7335 6.035L17.6265 3.136C15.8775 1.502 13.5965 0.5 10.8735 0.5C6.93047 0.5 3.51647 2.769 1.85547 6.073L5.22247 8.692C6.01847 6.299 8.24647 4.523 10.8735 4.523Z" fill="#EB4335"/>
<path d="M20.565 10.845C20.565 10.121 20.497 9.42799 20.38 8.76099H10.873V12.635H16.313C16.2062 13.2638 15.9718 13.8642 15.6242 14.399C15.2767 14.9339 14.8233 15.3919 14.292 15.745L17.562 18.289C19.468 16.528 20.565 13.924 20.565 10.845Z" fill="#4285F4"/>
<path d="M10.8735 20.7299C13.5975 20.7299 15.8915 19.8339 17.5635 18.2889L14.2925 15.7449C13.3905 16.3529 12.2305 16.7069 10.8735 16.7069C8.24647 16.7069 6.01847 14.9319 5.22347 12.5389L1.85547 15.1569C3.51547 18.4619 6.92947 20.7309 10.8735 20.7309" fill="#34A853"/>
<path d="M1.85528 15.157L5.22228 12.539C5.0153 11.9186 4.90961 11.269 4.90928 10.615C4.90928 9.947 5.02028 9.3 5.22228 8.692L1.85528 6.073C1.14681 7.48214 0.778623 9.03778 0.780279 10.615V10.616C0.780279 12.25 1.16928 13.792 1.85528 15.157Z" fill="#FBBC05"/>
</g>
<defs>
<clipPath id="clip0_2625_19819">
<rect width="20" height="21" fill="white" transform="translate(0.75 0.5)"/>
</clipPath>
</defs>
</svg>
