<svg width="24" height="24" viewBox="0 0 24 24" fill="none" xmlns="http://www.w3.org/2000/svg">
<path fill-rule="evenodd" clip-rule="evenodd" d="M16.1583 8.23297C16.1583 10.5827 14.2851 12.4667 11.949 12.4667C9.61292 12.4667 7.73974 10.5827 7.73974 8.23297C7.73974 5.88239 9.61292 4.00012 11.949 4.00012C14.2851 4.00012 16.1583 5.88239 16.1583 8.23297ZM11.949 20.0001C8.51785 20.0001 5.58809 19.4562 5.58809 17.2803C5.58809 15.1035 8.49904 14.5397 11.949 14.5397C15.3802 14.5397 18.31 15.0837 18.31 17.2605C18.31 19.4363 15.399 20.0001 11.949 20.0001ZM17.9571 8.30935C17.9571 9.50715 17.5998 10.623 16.973 11.5506C16.9086 11.6461 16.9659 11.7749 17.0796 11.7947C17.2363 11.8217 17.3984 11.837 17.5631 11.8415C19.2062 11.8848 20.6809 10.8211 21.0883 9.21986C21.6918 6.84136 19.9198 4.70602 17.6634 4.70602C17.4181 4.70602 17.1835 4.73214 16.9551 4.77897C16.9238 4.78617 16.8907 4.80058 16.8728 4.8285C16.8513 4.86272 16.8674 4.90865 16.8889 4.93837C17.5667 5.89392 17.9571 7.0593 17.9571 8.30935ZM20.6782 13.5127C21.7823 13.7297 22.5084 14.1728 22.8093 14.8168C23.0636 15.3454 23.0636 15.9587 22.8093 16.4865C22.349 17.4853 20.8654 17.8059 20.2887 17.8887C20.1696 17.9068 20.0738 17.8032 20.0864 17.6834C20.3809 14.9158 18.0377 13.6037 17.4315 13.3019C17.4055 13.2884 17.4002 13.2677 17.4028 13.2551C17.4046 13.2461 17.4154 13.2317 17.4351 13.229C18.7468 13.2047 20.1571 13.3848 20.6782 13.5127ZM6.43711 11.8414C6.60186 11.8369 6.76304 11.8225 6.92063 11.7946C7.03434 11.7748 7.09165 11.646 7.02718 11.5505C6.4004 10.6229 6.04313 9.50706 6.04313 8.30926C6.04313 7.05921 6.43353 5.89383 7.11135 4.93828C7.13284 4.90856 7.14806 4.86263 7.12746 4.82841C7.10956 4.80139 7.07553 4.78608 7.04509 4.77888C6.81586 4.73205 6.58127 4.70593 6.33593 4.70593C4.07951 4.70593 2.30751 6.84127 2.91191 9.21977C3.31932 10.821 4.79405 11.8847 6.43711 11.8414ZM6.59694 13.2546C6.59962 13.2681 6.59425 13.2879 6.56918 13.3023C5.9621 13.604 3.61883 14.9162 3.91342 17.6829C3.92595 17.8035 3.83104 17.9062 3.71195 17.8891C3.13531 17.8062 1.65163 17.4856 1.19139 16.4869C0.936203 15.9582 0.936203 15.3458 1.19139 14.8171C1.49225 14.1732 2.21752 13.7301 3.32156 13.5122C3.84358 13.3852 5.25294 13.205 6.5656 13.2294C6.5853 13.2321 6.59515 13.2465 6.59694 13.2546Z" fill="#e6e7e7"/>
</svg>
