<svg width="24" height="24" viewBox="0 0 24 24" fill="none" xmlns="http://www.w3.org/2000/svg">
<path fill-rule="evenodd" clip-rule="evenodd" d="M16.0799 22.0001H7.90988C4.37988 22.0001 1.99988 19.7291 1.99988 16.3401V7.67012C1.99988 4.28012 4.37988 2.00012 7.90988 2.00012H16.0799C19.6199 2.00012 21.9999 4.28012 21.9999 7.67012V16.3401C21.9999 19.7291 19.6199 22.0001 16.0799 22.0001ZM14.2699 11.2501H7.91988C7.49988 11.2501 7.16988 11.5901 7.16988 12.0001C7.16988 12.4201 7.49988 12.7501 7.91988 12.7501H14.2699L11.7899 15.2201C11.6499 15.3601 11.5699 15.5601 11.5699 15.7501C11.5699 15.9391 11.6499 16.1301 11.7899 16.2801C12.0799 16.5701 12.5599 16.5701 12.8499 16.2801L16.6199 12.5301C16.8999 12.2501 16.8999 11.7501 16.6199 11.4701L12.8499 7.72012C12.5599 7.43012 12.0799 7.43012 11.7899 7.72012C11.4999 8.02012 11.4999 8.49012 11.7899 8.79012L14.2699 11.2501Z" fill="#e6e7e7"/>
</svg>
