<svg width="24" height="24" viewBox="0 0 24 24" fill="none" xmlns="http://www.w3.org/2000/svg">
<path fill-rule="evenodd" clip-rule="evenodd" d="M10.4825 4.50338L10.8097 8.2026C10.8097 8.85387 11.3417 9.38186 12.0004 9.38186C12.6581 9.38186 13.1912 8.85387 13.1912 8.2026L13.5183 4.50338C13.5183 3.6732 12.8387 3.00012 12.0004 3.00012C11.1622 3.00012 10.4825 3.6732 10.4825 4.50338ZM10.7501 20.5142C10.8064 20.5654 10.8495 20.6047 10.8698 20.6249C11.1915 20.8703 11.5847 21.0001 12.0077 21.0001C12.3866 21.0001 12.7656 20.8845 13.0718 20.6532C13.2844 20.5049 13.6258 20.1623 13.6258 20.1623C14.9532 18.9492 16.9502 15.9318 17.5924 14.4013C17.6057 14.4013 17.9857 13.4915 18 13.0584V13.0006C18 12.3362 17.6211 11.7155 17.0086 11.3981C16.7554 11.2669 16.1349 11.1438 15.8408 11.0855C15.746 11.0667 15.6851 11.0546 15.6813 11.0512C14.8067 10.9213 13.465 10.8352 11.9934 10.8352C10.4469 10.8352 9.04792 10.9213 8.18763 11.0795C8.17331 11.0795 7.38572 11.2388 7.12355 11.3402C6.74463 11.4995 6.42299 11.7875 6.2192 12.1486C6.0738 12.4377 6 12.7409 6 13.0584C6.01542 13.3911 6.23352 14.0118 6.33596 14.2573C6.97815 15.874 9.07656 18.9645 10.3598 20.1481C10.4934 20.2804 10.6448 20.4183 10.7501 20.5142Z" fill="#e6e7e7"/>
</svg>
