<svg width="24" height="24" viewBox="0 0 24 24" fill="none" xmlns="http://www.w3.org/2000/svg">
<path fill-rule="evenodd" clip-rule="evenodd" d="M12.0001 22C6.48012 22 2.00012 17.51 2.00012 12C2.00012 6.48 6.48012 2 12.0001 2C17.5101 2 22.0001 6.48 22.0001 12C22.0001 17.51 17.5101 22 12.0001 22ZM16.0001 10.02C15.7001 9.73 15.2301 9.73 14.9401 10.03L12.0001 12.98L9.06012 10.03C8.77012 9.73 8.29012 9.73 8.00012 10.02C7.70012 10.32 7.70012 10.79 8.00012 11.08L11.4701 14.57C11.6101 14.71 11.8001 14.79 12.0001 14.79C12.2001 14.79 12.3901 14.71 12.5301 14.57L16.0001 11.08C16.1501 10.94 16.2201 10.75 16.2201 10.56C16.2201 10.36 16.1501 10.17 16.0001 10.02Z" fill="#e6e7e7"/>
</svg>
