<svg width="24" height="24" viewBox="0 0 24 24" fill="none" xmlns="http://www.w3.org/2000/svg">
<path d="M7.36922 10.8691C7.42572 10.8111 7.63906 10.5631 7.8378 10.3591C9.00292 9.07612 12.0424 6.97612 13.6332 6.33512C13.8748 6.23212 14.4856 6.01412 14.812 6.00012C15.1247 6.00012 15.4228 6.07212 15.7073 6.21812C16.0619 6.42212 16.3463 6.74312 16.5022 7.12212C16.6025 7.38512 16.7584 8.17212 16.7584 8.18612C16.9143 9.04712 17 10.4461 17 11.9921C17 13.4651 16.9143 14.8071 16.7867 15.6811C16.772 15.6951 16.6162 16.6731 16.4457 17.0081C16.133 17.6201 15.5222 18.0001 14.8685 18.0001H14.812C14.3863 17.9851 13.491 17.6051 13.491 17.5911C11.9859 16.9491 9.01656 14.9521 7.82319 13.6251C7.82319 13.6251 7.48709 13.2841 7.34096 13.0711C7.11301 12.7651 7 12.3861 7 12.0071C7 11.5841 7.12762 11.1901 7.36922 10.8691Z" fill="#e6e7e7"/>
</svg>
