<svg width="24" height="24" viewBox="0 0 24 24" fill="none" xmlns="http://www.w3.org/2000/svg">
<path d="M10.869 16.6309C10.811 16.5744 10.563 16.3611 10.359 16.1623C9.076 14.9972 6.976 11.9577 6.335 10.3669C6.232 10.1253 6.014 9.51449 6 9.18814C6 8.87543 6.072 8.57733 6.218 8.29286C6.422 7.93826 6.743 7.6538 7.122 7.49793C7.385 7.39759 8.172 7.24172 8.186 7.24172C9.047 7.08585 10.446 7.00012 11.992 7.00012C13.465 7.00012 14.807 7.08585 15.681 7.21347C15.695 7.22808 16.673 7.38395 17.008 7.55443C17.62 7.86715 18 8.47796 18 9.13164V9.18814C17.985 9.61386 17.605 10.5091 17.591 10.5091C16.949 12.0142 14.952 14.9836 13.625 16.1769C13.625 16.1769 13.284 16.513 13.071 16.6592C12.765 16.8871 12.386 17.0001 12.007 17.0001C11.584 17.0001 11.19 16.8725 10.869 16.6309Z" fill="#e6e7e7"/>
</svg>
