<svg width="24" height="24" viewBox="0 0 24 24" fill="none" xmlns="http://www.w3.org/2000/svg">
<path d="M13.131 7.36934C13.189 7.42584 13.437 7.63919 13.641 7.83792C14.924 9.00304 17.024 12.0425 17.665 13.6333C17.768 13.8749 17.986 14.4858 18 14.8121C18 15.1248 17.928 15.4229 17.782 15.7074C17.578 16.062 17.257 16.3464 16.878 16.5023C16.615 16.6027 15.828 16.7585 15.814 16.7585C14.953 16.9144 13.554 17.0001 12.008 17.0001C10.535 17.0001 9.193 16.9144 8.319 16.7868C8.305 16.7722 7.327 16.6163 6.992 16.4458C6.38 16.1331 6 15.5223 6 14.8686V14.8121C6.015 14.3864 6.395 13.4911 6.409 13.4911C7.051 11.986 9.048 9.01668 10.375 7.82331C10.375 7.82331 10.716 7.48721 10.929 7.34109C11.235 7.11313 11.614 7.00012 11.993 7.00012C12.416 7.00012 12.81 7.12774 13.131 7.36934Z" fill="#e6e7e7"/>
</svg>
