<svg width="24" height="24" viewBox="0 0 24 24" fill="none" xmlns="http://www.w3.org/2000/svg">
<path fill-rule="evenodd" clip-rule="evenodd" d="M8.9 2.00012H15.07C17.78 2.00012 19.97 3.07012 20 5.79012V20.9701C20 21.1401 19.96 21.3101 19.88 21.4601C19.75 21.7001 19.53 21.8801 19.26 21.9601C19 22.0401 18.71 22.0001 18.47 21.8601L11.99 18.6201L5.5 21.8601C5.351 21.9391 5.18 21.9901 5.01 21.9901C4.45 21.9901 4 21.5301 4 20.9701V5.79012C4 3.07012 6.2 2.00012 8.9 2.00012ZM8.22 9.62012H15.75C16.18 9.62012 16.53 9.26912 16.53 8.83012C16.53 8.39012 16.18 8.04012 15.75 8.04012H8.22C7.79 8.04012 7.44 8.39012 7.44 8.83012C7.44 9.26912 7.79 9.62012 8.22 9.62012Z" fill="#e6e7e7"/>
</svg>
