<svg width="24" height="24" viewBox="0 0 24 24" fill="none" xmlns="http://www.w3.org/2000/svg">
<path d="M14.4183 5.49006C13.9422 5.40212 13.505 5.70592 13.4144 6.1706C13.3238 6.63528 13.6285 7.08897 14.0916 7.1799C15.4859 7.45172 16.5624 8.53098 16.8353 9.93002V9.93101C16.913 10.3337 17.2675 10.6265 17.6759 10.6265C17.7306 10.6265 17.7854 10.6215 17.8412 10.6115C18.3043 10.5186 18.609 10.0659 18.5184 9.60024C18.1111 7.51068 16.5027 5.89679 14.4183 5.49006Z" fill="#e6e7e7"/>
<path d="M14.356 2.00805C14.1329 1.97607 13.9088 2.04203 13.7305 2.18393C13.5473 2.32783 13.4328 2.53569 13.4079 2.76853C13.3551 3.23921 13.6947 3.66491 14.1648 3.71788C17.4064 4.07963 19.926 6.60489 20.2905 9.85666C20.3393 10.2924 20.7048 10.6211 21.141 10.6211C21.1739 10.6211 21.2058 10.6191 21.2386 10.6151C21.4667 10.5902 21.6699 10.4772 21.8133 10.2974C21.9557 10.1175 22.0204 9.89364 21.9945 9.66479C21.5404 5.60758 18.4003 2.45874 14.356 2.00805Z" fill="#e6e7e7"/>
<path fill-rule="evenodd" clip-rule="evenodd" d="M11.0317 12.9725C15.0208 16.9605 15.9258 12.3468 18.4656 14.8849C20.9143 17.3329 22.3216 17.8233 19.2192 20.9248C18.8306 21.2371 16.3616 24.9944 7.6846 16.3198C-0.993478 7.64412 2.76158 5.17257 3.07397 4.78407C6.18387 1.67397 6.66586 3.0895 9.11449 5.53745C11.6544 8.07662 7.04266 8.98454 11.0317 12.9725Z" fill="#e6e7e7"/>
</svg>
