<svg width="24" height="24" viewBox="0 0 24 24" fill="none" xmlns="http://www.w3.org/2000/svg">
<path fill-rule="evenodd" clip-rule="evenodd" d="M17.44 6.23653C17.48 6.30645 17.55 6.35639 17.64 6.35639C20.04 6.35639 22 8.31422 22 10.7116V16.645C22 19.0423 20.04 21.0001 17.64 21.0001H6.36C3.95 21.0001 2 19.0423 2 16.645V10.7116C2 8.31422 3.95 6.35639 6.36 6.35639C6.44 6.35639 6.52 6.31644 6.55 6.23653L6.61 6.11666C6.64448 6.04409 6.67987 5.96955 6.71579 5.89389C6.97161 5.35504 7.25463 4.75891 7.43 4.40856C7.89 3.50956 8.67 3.01011 9.64 3.00012H14.35C15.32 3.01011 16.11 3.50956 16.57 4.40856C16.7275 4.7232 16.9674 5.23002 17.1987 5.71851C17.2464 5.81933 17.2938 5.91936 17.34 6.01677L17.44 6.23653ZM16.71 10.0723C16.71 10.5717 17.11 10.9713 17.61 10.9713C18.11 10.9713 18.52 10.5717 18.52 10.0723C18.52 9.57282 18.11 9.16327 17.61 9.16327C17.11 9.16327 16.71 9.57282 16.71 10.0723ZM10.27 11.6205C10.74 11.1511 11.35 10.9013 12 10.9013C12.65 10.9013 13.26 11.1511 13.72 11.6106C14.18 12.07 14.43 12.6794 14.43 13.3286C14.42 14.6672 13.34 15.7559 12 15.7559C11.35 15.7559 10.74 15.5062 10.28 15.0467C9.82 14.5872 9.57 13.9779 9.57 13.3286V13.3187C9.56 12.6894 9.81 12.08 10.27 11.6205ZM14.77 16.1056C14.06 16.8148 13.08 17.2543 12 17.2543C10.95 17.2543 9.97 16.8447 9.22 16.1056C8.48 15.3564 8.07 14.3775 8.07 13.3286C8.06 12.2898 8.47 11.3109 9.21 10.5617C9.96 9.81255 10.95 9.40301 12 9.40301C13.05 9.40301 14.04 9.81255 14.78 10.5517C15.52 11.3009 15.93 12.2898 15.93 13.3286C15.92 14.4174 15.48 15.3963 14.77 16.1056Z" fill="#e6e7e7"/>
</svg>
