<svg width="24" height="24" viewBox="0 0 24 24" fill="none" xmlns="http://www.w3.org/2000/svg">
<path fill-rule="evenodd" clip-rule="evenodd" d="M4.54 2.00012H7.92C9.33 2.00012 10.46 3.15012 10.46 4.56112V7.97012C10.46 9.39012 9.33 10.5301 7.92 10.5301H4.54C3.14 10.5301 2 9.39012 2 7.97012V4.56112C2 3.15012 3.14 2.00012 4.54 2.00012ZM4.54 13.4698H7.92C9.33 13.4698 10.46 14.6108 10.46 16.0308V19.4398C10.46 20.8498 9.33 21.9998 7.92 21.9998H4.54C3.14 21.9998 2 20.8498 2 19.4398V16.0308C2 14.6108 3.14 13.4698 4.54 13.4698ZM19.4601 2.00012H16.0801C14.6701 2.00012 13.5401 3.15012 13.5401 4.56112V7.97012C13.5401 9.39012 14.6701 10.5301 16.0801 10.5301H19.4601C20.8601 10.5301 22.0001 9.39012 22.0001 7.97012V4.56112C22.0001 3.15012 20.8601 2.00012 19.4601 2.00012ZM16.0801 13.4698H19.4601C20.8601 13.4698 22.0001 14.6108 22.0001 16.0308V19.4398C22.0001 20.8498 20.8601 21.9998 19.4601 21.9998H16.0801C14.6701 21.9998 13.5401 20.8498 13.5401 19.4398V16.0308C13.5401 14.6108 14.6701 13.4698 16.0801 13.4698Z" fill="#e6e7e7"/>
</svg>
