<svg width="24" height="24" viewBox="0 0 24 24" fill="none" xmlns="http://www.w3.org/2000/svg">
<path fill-rule="evenodd" clip-rule="evenodd" d="M20.2871 5.24309C20.6761 5.24309 21 5.56609 21 5.97708V6.35708C21 6.75807 20.6761 7.09107 20.2871 7.09107H3.71385C3.32386 7.09107 3 6.75807 3 6.35708V5.97708C3 5.56609 3.32386 5.24309 3.71385 5.24309H6.62957C7.22185 5.24309 7.7373 4.82209 7.87054 4.2281L8.02323 3.54611C8.26054 2.61712 9.0415 2.00012 9.93527 2.00012H14.0647C14.9488 2.00012 15.7385 2.61712 15.967 3.49711L16.1304 4.2271C16.2627 4.82209 16.7781 5.24309 17.3714 5.24309H20.2871ZM18.8058 19.1342C19.1102 16.2972 19.6432 9.55725 19.6432 9.48925C19.6626 9.28325 19.5955 9.08825 19.4623 8.93125C19.3193 8.78425 19.1384 8.69726 18.9391 8.69726H5.06852C4.86818 8.69726 4.67756 8.78425 4.54529 8.93125C4.41108 9.08825 4.34494 9.28325 4.35467 9.48925C4.35646 9.50174 4.37558 9.73915 4.40755 10.1361C4.54958 11.8993 4.94517 16.8103 5.20079 19.1342C5.38168 20.8461 6.50498 21.9221 8.13206 21.9611C9.38763 21.9901 10.6811 22.0001 12.0038 22.0001C13.2496 22.0001 14.5149 21.9901 15.8094 21.9611C17.4929 21.9321 18.6152 20.8751 18.8058 19.1342Z" fill="#e6e7e7"/>
</svg>
