<svg width="24" height="24" viewBox="0 0 24 24" fill="none" xmlns="http://www.w3.org/2000/svg">
<path fill-rule="evenodd" clip-rule="evenodd" d="M2 12.0002C2 6.48024 6.47 2.00024 12 2.00024C17.52 2.00024 22 6.48024 22 12.0002C22 17.5302 17.52 22.0002 12 22.0002C6.47 22.0002 2 17.5302 2 12.0002ZM14.23 13.8302L15.85 8.71024C15.96 8.36024 15.64 8.03024 15.29 8.14024L10.17 9.74024C9.96 9.81024 9.79 9.97024 9.73 10.1802L8.13 15.3102C8.02 15.6502 8.35 15.9802 8.69 15.8702L13.79 14.2702C14 14.2102 14.17 14.0402 14.23 13.8302Z" fill="#e6e7e7"/>
</svg>
