<svg width="24" height="24" viewBox="0 0 24 24" fill="none" xmlns="http://www.w3.org/2000/svg">
<path fill-rule="evenodd" clip-rule="evenodd" d="M9.3764 20.028L18.1628 8.66556C18.6403 8.05283 18.8101 7.34442 18.6509 6.62311C18.513 5.96738 18.1097 5.34389 17.5049 4.87091L16.0299 3.69919C14.7459 2.67796 13.1541 2.78546 12.2415 3.95718L11.2546 5.23747C11.1273 5.39764 11.1591 5.63414 11.3183 5.76313C11.3183 5.76313 13.812 7.76258 13.8651 7.80558C14.0349 7.96683 14.1622 8.18182 14.1941 8.43982C14.2471 8.94505 13.8969 9.41804 13.377 9.48254C13.1329 9.51479 12.8994 9.43954 12.7297 9.29979L10.1086 7.21435C9.98126 7.11867 9.79025 7.1391 9.68413 7.2681L3.45514 15.3304C3.0519 15.8356 2.91395 16.4914 3.0519 17.1256L3.84777 20.5763C3.89021 20.759 4.04939 20.888 4.24039 20.888L7.74222 20.845C8.37891 20.8343 8.97316 20.544 9.3764 20.028ZM14.2797 18.9534H19.9898C20.5469 18.9534 21 19.4124 21 19.9767C21 20.5422 20.5469 21.0001 19.9898 21.0001H14.2797C13.7226 21.0001 13.2695 20.5422 13.2695 19.9767C13.2695 19.4124 13.7226 18.9534 14.2797 18.9534Z" fill="#e6e7e7"/>
</svg>
