<svg width="24" height="24" viewBox="0 0 24 24" fill="none" xmlns="http://www.w3.org/2000/svg">
<path fill-rule="evenodd" clip-rule="evenodd" d="M15.164 6.08264C15.4791 6.08696 15.7949 6.09129 16.1119 6.09453C19.5172 6.09453 22 8.52228 22 11.8749V16.1812C22 19.5338 19.5172 21.9616 16.1119 21.9616C14.7478 21.9905 13.3837 22.0001 12.0098 22.0001C10.6359 22.0001 9.25221 21.9905 7.88813 21.9616C4.48283 21.9616 2 19.5338 2 16.1812V11.8749C2 8.52228 4.48283 6.09453 7.89794 6.09453C9.18351 6.07527 10.4985 6.056 11.8332 6.056V5.89222C11.8332 5.22748 11.2738 4.68798 10.6065 4.68798H9.63494C8.52601 4.68798 7.62316 3.80166 7.62316 2.72267C7.62316 2.32768 7.95682 2.00012 8.35918 2.00012C8.77134 2.00012 9.09519 2.32768 9.09519 2.72267C9.09519 3.01168 9.34053 3.2429 9.63494 3.2429H10.6065C12.0883 3.25253 13.2954 4.4375 13.3052 5.88259V6.06563C13.9239 6.06563 14.5425 6.07412 15.164 6.08264ZM10.8518 14.7458H9.82139V15.767C9.82139 16.162 9.48773 16.4895 9.08538 16.4895C8.67321 16.4895 8.34936 16.162 8.34936 15.767V14.7458H7.30913C6.90677 14.7458 6.57311 14.4279 6.57311 14.0232C6.57311 13.6283 6.90677 13.3007 7.30913 13.3007H8.34936V12.2891C8.34936 11.8941 8.67321 11.5666 9.08538 11.5666C9.48773 11.5666 9.82139 11.8941 9.82139 12.2891V13.3007H10.8518C11.2542 13.3007 11.5878 13.6283 11.5878 14.0232C11.5878 14.4279 11.2542 14.7458 10.8518 14.7458ZM15.0226 13.1177H15.1207C15.5231 13.1177 15.8567 12.7997 15.8567 12.3951C15.8567 12.0001 15.5231 11.6726 15.1207 11.6726H15.0226C14.6104 11.6726 14.2866 12.0001 14.2866 12.3951C14.2866 12.7997 14.6104 13.1177 15.0226 13.1177ZM16.7007 16.4317H16.7988C17.2012 16.4317 17.5348 16.1138 17.5348 15.7092C17.5348 15.3142 17.2012 14.9866 16.7988 14.9866H16.7007C16.2875 14.9866 15.9647 15.3142 15.9647 15.7092C15.9647 16.1138 16.2875 16.4317 16.7007 16.4317Z" fill="#e6e7e7"/>
</svg>
