<svg width="24" height="24" viewBox="0 0 24 24" fill="none" xmlns="http://www.w3.org/2000/svg">
<path fill-rule="evenodd" clip-rule="evenodd" d="M12.3264 2.20978C12.4861 2.06644 12.6973 1.99131 12.9135 2.00095C17.4843 2.13778 21.3044 5.45592 21.9967 9.89075C22.0011 9.91723 22.0011 9.94424 21.9967 9.97072C22.0116 10.1806 21.9407 10.3876 21.7996 10.546C21.6586 10.7044 21.459 10.8011 21.2451 10.8148L13.5656 11.3212C13.3116 11.3437 13.0597 11.2602 12.8718 11.091C12.6839 10.9219 12.5774 10.6829 12.5785 10.4327L12.0623 2.88944V2.76505C12.0717 2.5529 12.1667 2.35313 12.3264 2.20978ZM11.7997 13.2937L18.4297 12.885H18.5011C18.7869 12.8896 19.0591 13.0055 19.2579 13.2072C19.4566 13.4088 19.5655 13.6796 19.5606 13.96C19.2984 17.7821 16.4962 20.9756 12.6828 21.7984C8.86938 22.6211 4.96017 20.8755 3.08778 17.514C2.53722 16.5458 2.1893 15.4795 2.06445 14.3776C2.01603 14.0511 1.99483 13.7213 2.00106 13.3914C2.01368 9.32719 4.90728 5.81919 8.95607 4.95962C9.4462 4.86788 9.93762 5.1126 10.1515 5.55491C10.2571 5.7142 10.2845 5.90922 10.2969 6.09995C10.367 7.17402 10.4393 8.23915 10.5113 9.30017C10.5732 10.2128 10.6349 11.1224 10.6948 12.032C10.6917 12.2463 10.7254 12.4595 10.7944 12.6628C10.9569 13.0629 11.3614 13.3167 11.7997 13.2937Z" fill="#e6e7e7"/>
</svg>
