<svg width="24" height="24" viewBox="0 0 24 24" fill="none" xmlns="http://www.w3.org/2000/svg">
<path fill-rule="evenodd" clip-rule="evenodd" d="M9.80327 15.2527C10.4277 15.676 11.1888 15.932 11.9987 15.932C14.1453 15.932 15.8919 14.1697 15.8919 12.0038C15.8919 11.1867 15.6382 10.4188 15.2186 9.78867L14.1551 10.8618C14.3307 11.1965 14.4283 11.5903 14.4283 12.0038C14.4283 13.3526 13.3354 14.4552 11.9987 14.4552C11.5889 14.4552 11.1986 14.3568 10.8668 14.1796L9.80327 15.2527ZM18.4288 6.54964C19.8436 7.84919 21.0438 9.60161 21.9415 11.7085C22.0195 11.8955 22.0195 12.1121 21.9415 12.2893C19.8534 17.1922 16.1358 20.126 11.9987 20.126H11.9889C10.1058 20.126 8.30063 19.5058 6.71018 18.3736L4.81725 20.2835C4.67089 20.4312 4.4855 20.5001 4.30011 20.5001C4.11472 20.5001 3.91957 20.4312 3.78297 20.2835C3.53903 20.0374 3.5 19.6436 3.69515 19.3581L3.72442 19.3187L18.1556 4.75783C18.1751 4.73814 18.1946 4.71845 18.2044 4.69876L18.2044 4.69875C18.2239 4.67906 18.2434 4.65938 18.2532 4.63969L19.1704 3.71425C19.4631 3.42875 19.9217 3.42875 20.2046 3.71425C20.4974 3.99976 20.4974 4.47232 20.2046 4.75783L18.4288 6.54964ZM8.09836 12.0077C8.09836 12.2636 8.12764 12.5196 8.16667 12.7559L4.55643 16.3986C3.5807 15.2565 2.7318 13.8782 2.05854 12.2932C1.98049 12.1159 1.98049 11.8994 2.05854 11.7123C4.14662 6.80945 7.86419 3.88546 11.9916 3.88546H12.0013C13.3966 3.88546 14.7529 4.22019 16.0018 4.85028L12.7429 8.13854C12.5087 8.09915 12.255 8.06962 12.0013 8.06962C9.84494 8.06962 8.09836 9.83189 8.09836 12.0077Z" fill="#e6e7e7"/>
</svg>
