<svg width="24" height="24" viewBox="0 0 24 24" fill="none" xmlns="http://www.w3.org/2000/svg">
<path fill-rule="evenodd" clip-rule="evenodd" d="M18.7071 8.79645C18.7071 10.0524 19.039 10.7926 19.7695 11.6457C20.3231 12.2742 20.5 13.0809 20.5 13.9561C20.5 14.8304 20.2128 15.6603 19.6373 16.3341C18.884 17.1418 17.8215 17.6575 16.7372 17.7471C15.1659 17.8811 13.5937 17.9939 12.0005 17.9939C10.4063 17.9939 8.83505 17.9264 7.26375 17.7471C6.17846 17.6575 5.11602 17.1418 4.36367 16.3341C3.78822 15.6603 3.5 14.8304 3.5 13.9561C3.5 13.0809 3.6779 12.2742 4.23049 11.6457C4.98384 10.7926 5.29392 10.0524 5.29392 8.79645V8.37042C5.29392 6.68846 5.71333 5.58864 6.577 4.51198C7.86106 2.94182 9.91935 2.00012 11.9558 2.00012H12.0452C14.1254 2.00012 16.2502 2.98714 17.5125 4.62479C18.3314 5.67929 18.7071 6.73278 18.7071 8.37042V8.79645ZM9.07367 20.061C9.07367 19.5574 9.53582 19.3267 9.96318 19.228C10.4631 19.1223 13.5093 19.1223 14.0092 19.228C14.4366 19.3267 14.8987 19.5574 14.8987 20.061C14.8738 20.5404 14.5926 20.9654 14.204 21.2353C13.7001 21.6281 13.1088 21.8769 12.4906 21.9665C12.1487 22.0108 11.8128 22.0118 11.4828 21.9665C10.8636 21.8769 10.2723 21.6281 9.76938 21.2343C9.37978 20.9654 9.09852 20.5404 9.07367 20.061Z" fill="#e6e7e7"/>
</svg>
