<svg width="24" height="24" viewBox="0 0 24 24" fill="none" xmlns="http://www.w3.org/2000/svg">
<path fill-rule="evenodd" clip-rule="evenodd" d="M13.9455 12.8901C14.2327 13.1801 14.698 13.1801 14.9851 12.8901C15.2822 12.6001 15.2822 12.1301 14.995 11.8401L12.1535 8.96012C12.0842 8.89012 12.005 8.84012 11.9158 8.80012C11.8267 8.76012 11.7376 8.74012 11.6386 8.74012C11.5396 8.74012 11.4406 8.76012 11.3515 8.80012C11.2624 8.84012 11.1832 8.89012 11.1139 8.96012L8.28218 11.8401C7.99505 12.1301 7.99505 12.6001 8.28218 12.8901C8.56931 13.1801 9.03465 13.1801 9.32178 12.8901L10.896 11.2901V16.1201C10.896 16.5301 11.2228 16.8601 11.6386 16.8601C12.0446 16.8601 12.3713 16.5301 12.3713 16.1201V11.2901L13.9455 12.8901ZM19.3282 9.02573C19.5609 9.02305 19.8143 9.02012 20.0446 9.02012C20.2921 9.02012 20.5 9.22012 20.5 9.47012V17.5101C20.5 19.9901 18.5 22.0001 16.0446 22.0001H8.17327C5.58911 22.0001 3.5 19.8901 3.5 17.2901V6.51012C3.5 4.03012 5.4901 2.00012 7.96535 2.00012H13.2525C13.5 2.00012 13.7079 2.21012 13.7079 2.46012V5.68012C13.7079 7.51012 15.1931 9.01012 17.0149 9.02012C17.4313 9.02012 17.801 9.02327 18.1258 9.02603C18.3801 9.02819 18.6069 9.03012 18.8069 9.03012C18.9479 9.03012 19.1306 9.02801 19.3282 9.02573ZM19.6047 7.56612C18.7908 7.56912 17.8324 7.56612 17.1423 7.55912C16.0472 7.55912 15.1452 6.64812 15.1452 5.54212V2.90612C15.1452 2.47512 15.6621 2.26112 15.9581 2.57212C16.7204 3.37191 17.8872 4.59751 18.8736 5.63358C19.2735 6.05357 19.6437 6.44241 19.9452 6.75912C20.2334 7.06212 20.0215 7.56512 19.6047 7.56612Z" fill="#e6e7e7"/>
</svg>
