<svg width="24" height="24" viewBox="0 0 24 24" fill="none" xmlns="http://www.w3.org/2000/svg">
<path fill-rule="evenodd" clip-rule="evenodd" d="M8.62871 12.9901C8.62871 13.4001 8.96535 13.7301 9.37129 13.7301H14.2624C14.6683 13.7301 15.005 13.4001 15.005 12.9901C15.005 12.5701 14.6683 12.2401 14.2624 12.2401H9.37129C8.96535 12.2401 8.62871 12.5701 8.62871 12.9901ZM19.3381 9.02573C19.5708 9.02305 19.8242 9.02012 20.0545 9.02012C20.302 9.02012 20.5 9.22012 20.5 9.47012V17.5101C20.5 19.9901 18.5099 22.0001 16.0446 22.0001H8.17327C5.59901 22.0001 3.5 19.8901 3.5 17.2901V6.51012C3.5 4.03012 5.5 2.00012 7.96535 2.00012H13.2525C13.5099 2.00012 13.7079 2.21012 13.7079 2.46012V5.68012C13.7079 7.51012 15.203 9.01012 17.0149 9.02012C17.4381 9.02012 17.8112 9.02329 18.1377 9.02605C18.3917 9.02821 18.6175 9.03012 18.8168 9.03012C18.9578 9.03012 19.1405 9.02801 19.3381 9.02573ZM19.61 7.56632C18.7961 7.56932 17.8367 7.56632 17.1466 7.55932C16.0516 7.55932 15.1496 6.64832 15.1496 5.54232V2.90632C15.1496 2.47532 15.6674 2.26132 15.9635 2.57232C16.4995 3.13522 17.2361 3.90904 17.9693 4.67925C18.7002 5.44701 19.4277 6.2112 19.9496 6.75932C20.2387 7.06232 20.0268 7.56532 19.61 7.56632Z" fill="#e6e7e7"/>
</svg>
