<svg width="24" height="24" viewBox="0 0 24 24" fill="none" xmlns="http://www.w3.org/2000/svg">
<path fill-rule="evenodd" clip-rule="evenodd" d="M14.0545 15.2601C14.3416 14.9701 14.3416 14.5001 14.0545 14.2101L12.8465 12.9901L14.0545 11.7701C14.3416 11.4801 14.3416 11.0101 14.0545 10.7201C13.7673 10.4201 13.2921 10.4201 13.005 10.7201L11.797 11.9401L10.5891 10.7201C10.302 10.4201 9.83663 10.4201 9.5495 10.7201C9.26238 11.0101 9.26238 11.4801 9.5495 11.7701L10.7574 12.9901L9.5495 14.2101C9.26238 14.5001 9.26238 14.9701 9.5495 15.2601C9.68812 15.4101 9.87624 15.4801 10.0644 15.4801C10.2525 15.4801 10.4505 15.4101 10.5891 15.2601L11.797 14.0401L13.005 15.2601C13.1535 15.4101 13.3416 15.4801 13.5297 15.4801C13.7178 15.4801 13.9059 15.4101 14.0545 15.2601ZM19.3354 9.02569C19.5686 9.02302 19.8209 9.02012 20.0446 9.02012C20.302 9.02012 20.5 9.22012 20.5 9.47012V17.5101C20.5 19.9901 18.5099 22.0001 16.0446 22.0001H8.17327C5.58911 22.0001 3.5 19.8901 3.5 17.2901V6.51012C3.5 4.03012 5.5 2.00012 7.96535 2.00012H13.2525C13.5 2.00012 13.7079 2.21012 13.7079 2.46012V5.68012C13.7079 7.51012 15.203 9.01012 17.0149 9.02012C17.4333 9.02012 17.8077 9.0233 18.1346 9.02607C18.3878 9.02822 18.6125 9.03012 18.8069 9.03012C18.9488 9.03012 19.135 9.02799 19.3354 9.02569ZM19.6056 7.56632C18.7918 7.56932 17.8334 7.56632 17.1433 7.55932C16.0482 7.55932 15.1462 6.64832 15.1462 5.54232V2.90632C15.1462 2.47532 15.6641 2.26132 15.9591 2.57232C16.7215 3.37219 17.8885 4.59796 18.8749 5.6341C19.2746 6.05396 19.6447 6.44269 19.9462 6.75932C20.2344 7.06232 20.0235 7.56532 19.6056 7.56632Z" fill="#e6e7e7"/>
</svg>
