<svg width="24" height="24" viewBox="0 0 24 24" fill="none" xmlns="http://www.w3.org/2000/svg">
<path fill-rule="evenodd" clip-rule="evenodd" d="M7.33024 2.00024H16.6602C20.0602 2.00024 22.0002 3.92024 22.0002 7.33024V16.6702C22.0002 20.0602 20.0702 22.0002 16.6702 22.0002H7.33024C3.92024 22.0002 2.00024 20.0602 2.00024 16.6702V7.33024C2.00024 3.92024 3.92024 2.00024 7.33024 2.00024ZM12.8202 12.8302H15.6602C16.1202 12.8202 16.4902 12.4502 16.4902 11.9902C16.4902 11.5302 16.1202 11.1602 15.6602 11.1602H12.8202V8.34024C12.8202 7.88024 12.4502 7.51024 11.9902 7.51024C11.5302 7.51024 11.1602 7.88024 11.1602 8.34024V11.1602H8.33024C8.11024 11.1602 7.90024 11.2502 7.74024 11.4002C7.59024 11.5602 7.50024 11.7692 7.50024 11.9902C7.50024 12.4502 7.87024 12.8202 8.33024 12.8302H11.1602V15.6602C11.1602 16.1202 11.5302 16.4902 11.9902 16.4902C12.4502 16.4902 12.8202 16.1202 12.8202 15.6602V12.8302Z" fill="#e6e7e7"/>
</svg>
