<svg width="24" height="24" viewBox="0 0 24 24" fill="none" xmlns="http://www.w3.org/2000/svg">
<path d="M21.4354 2.5821C20.9352 2.06872 20.1949 1.87746 19.5046 2.07879L3.408 6.75965C2.6797 6.96198 2.16349 7.54281 2.02443 8.28067C1.88237 9.03162 2.37858 9.98491 3.02684 10.3835L8.0599 13.4769C8.57611 13.794 9.24238 13.7145 9.66956 13.2837L15.4329 7.48442C15.723 7.18243 16.2032 7.18243 16.4934 7.48442C16.7835 7.77635 16.7835 8.24947 16.4934 8.55146L10.72 14.3517C10.2918 14.7815 10.2118 15.4509 10.5269 15.9704L13.6022 21.0539C13.9623 21.6579 14.5826 22.0001 15.2628 22.0001C15.3429 22.0001 15.4329 22.0001 15.513 21.9901C16.2933 21.8894 16.9135 21.3559 17.1436 20.6009L21.9156 4.52491C22.1257 3.8404 21.9356 3.09549 21.4354 2.5821Z" fill="#e6e7e7"/>
</svg>
