<svg width="24" height="24" viewBox="0 0 24 24" fill="none" xmlns="http://www.w3.org/2000/svg">
<path fill-rule="evenodd" clip-rule="evenodd" d="M19.2015 4.32879C19.9463 4.57394 20.4496 5.26134 20.4496 6.02621L20.4999 12.6639C20.51 14.6741 19.7752 16.6255 18.4265 18.1562C17.8126 18.8622 17.0175 19.4604 16.011 19.9997L12.438 21.9119C12.3273 21.9707 12.2065 22.0001 12.0857 22.0001C11.9649 22.0001 11.8341 21.9707 11.7234 21.9119L8.12015 20.0487C7.1036 19.5192 6.30848 18.9309 5.68446 18.2346C4.31564 16.7245 3.55072 14.7731 3.54065 12.7629L3.50039 6.12328C3.49033 5.35842 3.99357 4.67298 4.7283 4.41705L11.3409 2.10382C11.7334 1.96556 12.1662 1.96556 12.5688 2.10382L19.2015 4.32879ZM14.4207 14.0867C14.7126 13.8023 14.7126 13.3316 14.4207 13.0473L13.062 11.7225L14.4207 10.3997C14.7126 10.1153 14.7126 9.65441 14.4207 9.35925C14.1289 9.07488 13.6457 9.07488 13.3539 9.35925L11.9951 10.684L10.6364 9.35925C10.3445 9.07488 9.87143 9.07488 9.56949 9.35925C9.27761 9.65441 9.27761 10.1153 9.56949 10.3997L10.9282 11.7225L9.56949 13.0473C9.27761 13.3316 9.27761 13.8023 9.56949 14.0867C9.72046 14.2338 9.91169 14.3015 10.1029 14.3015C10.3042 14.3015 10.4955 14.2338 10.6364 14.0867L11.9951 12.7629L13.3539 14.0867C13.5048 14.2338 13.6961 14.3015 13.8873 14.3015C14.0785 14.3015 14.2798 14.2338 14.4207 14.0867Z" fill="#e6e7e7"/>
</svg>
