<svg width="24" height="24" viewBox="0 0 24 24" fill="none" xmlns="http://www.w3.org/2000/svg">
<path fill-rule="evenodd" clip-rule="evenodd" d="M7.54618 3.27805C7.71236 3.39801 7.98037 3.67357 7.98037 3.67357C9.02079 4.6487 10.5879 7.07406 11.0911 8.30456C11.1016 8.30456 11.4001 9.0362 11.4118 9.38421V9.43053C11.4118 9.96383 11.1133 10.4627 10.6335 10.718C10.4357 10.8233 9.95456 10.9212 9.72244 10.9685C9.64556 10.9841 9.59599 10.9942 9.59308 10.9972C8.90727 11.1017 7.85514 11.1706 6.70003 11.1706C5.48757 11.1706 4.38981 11.1017 3.71453 10.9734C3.70282 10.9734 3.08606 10.8463 2.88009 10.7644C2.58282 10.6373 2.3312 10.4045 2.17087 10.1147C2.05618 9.88306 2 9.63839 2 9.38421C2.01053 9.11697 2.18257 8.61812 2.26215 8.42096C2.76539 7.12038 4.41204 4.63682 5.41852 3.68545C5.52307 3.57934 5.64206 3.46818 5.72485 3.39084C5.76902 3.34957 5.8029 3.31792 5.81877 3.30181C6.07039 3.10464 6.37936 3.00012 6.71173 3.00012C7.00783 3.00012 7.30509 3.09277 7.54618 3.27805ZM18.2286 10.1619C18.2286 10.6857 17.8108 11.1097 17.2947 11.1097C16.7786 11.1097 16.3608 10.6857 16.3608 10.1619L16.1033 5.58308C16.1033 4.91555 16.637 4.37512 17.2947 4.37512C17.9524 4.37512 18.4849 4.91555 18.4849 5.58308L18.2286 10.1619ZM21.1199 13.2357C21.4172 13.364 21.6688 13.5956 21.8291 13.8854C21.9438 14.117 22 14.3617 22 14.6171C21.9895 14.8831 21.8174 15.3832 21.7367 15.5804C21.2346 16.8798 19.5868 19.3634 18.5815 20.316C18.4787 20.4196 18.3619 20.5285 18.2793 20.6056L18.2792 20.6057C18.2331 20.6487 18.1976 20.6818 18.1812 20.6984C17.9284 20.8956 17.6206 21.0001 17.2894 21.0001C16.991 21.0001 16.6937 20.9075 16.4538 20.721C16.2876 20.6022 16.0196 20.3267 16.0196 20.3267C14.978 19.3527 13.4121 16.9261 12.9089 15.6956C12.8972 15.6956 12.5999 14.9651 12.5882 14.6171V14.5708C12.5882 14.0363 12.8855 13.5374 13.3665 13.282C13.5639 13.1779 14.0435 13.0797 14.2762 13.0321L14.2762 13.032C14.3539 13.0162 14.404 13.0059 14.4069 13.0029C15.0927 12.8984 16.1449 12.8295 17.3 12.8295C18.5124 12.8295 19.6102 12.8984 20.2855 13.0267C20.296 13.0267 20.9139 13.1538 21.1199 13.2357ZM6.70553 12.8906C6.18942 12.8906 5.77161 13.3147 5.77161 13.8385L5.51414 18.4172C5.51414 19.0847 6.04781 19.6251 6.70553 19.6251C7.36325 19.6251 7.89575 19.0847 7.89575 18.4172L7.63945 13.8385C7.63945 13.3147 7.22165 12.8906 6.70553 12.8906Z" fill="#e6e7e7"/>
</svg>
