<svg width="24" height="24" viewBox="0 0 24 24" fill="none" xmlns="http://www.w3.org/2000/svg">
<path fill-rule="evenodd" clip-rule="evenodd" d="M8.22606 8.71118H16.2312C18.5886 8.71118 20.5 10.5808 20.5 12.8867V17.8246C20.5 20.1305 18.5886 22.0001 16.2312 22.0001H7.76778C5.41136 22.0001 3.5 20.1305 3.5 17.8246V12.8867C3.5 10.9903 4.80066 9.40694 6.57077 8.89804L6.46001 8.91097V7.38726C6.48033 4.41638 8.95057 2.00012 11.9787 2.00012C14.3463 2.00012 16.4385 3.4622 17.2108 5.62799C17.2921 5.84666 17.2717 6.0852 17.1701 6.29393C17.0685 6.50266 16.8866 6.66169 16.662 6.73226C16.2048 6.89029 15.6967 6.65274 15.524 6.19553C15.0057 4.72351 13.5842 3.73951 11.999 3.73951C9.92505 3.73951 8.24943 5.37056 8.23825 7.36738V8.7092L8.22606 8.71118ZM11.9949 17.3286C12.4928 17.3286 12.8891 16.941 12.8891 16.454V14.2474C12.8891 13.7703 12.4928 13.3827 11.9949 13.3827C11.5072 13.3827 11.1109 13.7703 11.1109 14.2474V16.454C11.1109 16.941 11.5072 17.3286 11.9949 17.3286Z" fill="#e6e7e7"/>
</svg>
