<svg width="24" height="24" viewBox="0 0 24 24" fill="none" xmlns="http://www.w3.org/2000/svg">
<path fill-rule="evenodd" clip-rule="evenodd" d="M8.46583 5.23637C8.24276 5.53764 8.26838 5.96739 8.5502 6.24012C8.8502 6.54012 9.3402 6.54012 9.6402 6.24012L11.2302 4.64012V8.78012H12.7702V4.64012L14.3602 6.24012L14.4464 6.3145C14.7477 6.53764 15.1775 6.51285 15.4502 6.24012C15.6002 6.09012 15.6802 5.89012 15.6802 5.69012C15.6802 5.50012 15.6002 5.30012 15.4502 5.15012L12.5402 2.23012L12.4495 2.1486C12.3202 2.05132 12.1602 2.00012 12.0002 2.00012C11.7902 2.00012 11.6002 2.08012 11.4502 2.23012L8.5402 5.15012L8.46583 5.23637ZM6.23116 8.78524C3.87791 8.89639 2 10.876 2 13.2876V18.2527L2.00484 18.4652C2.1141 20.8601 4.06029 22.7803 6.45 22.7803H17.56L17.7688 22.7754C20.1221 22.6642 22 20.6844 22 18.2629V13.3079L21.9951 13.0946C21.8853 10.691 19.93 8.78032 17.55 8.78032H12.77V14.885L12.7629 14.9923C12.7112 15.3777 12.385 15.6684 12 15.6684C11.57 15.6684 11.23 15.3225 11.23 14.885V8.78032H6.44L6.23116 8.78524Z" fill="#e6e7e7"/>
</svg>
