<svg width="24" height="24" viewBox="0 0 24 24" fill="none" xmlns="http://www.w3.org/2000/svg">
<path fill-rule="evenodd" clip-rule="evenodd" d="M17.7689 8.38192H22C22 4.98472 19.9644 3.00012 16.5156 3.00012H7.48444C4.03556 3.00012 2 4.98472 2 8.33859V15.6617C2 19.0155 4.03556 21.0001 7.48444 21.0001H16.5156C19.9644 21.0001 22 19.0155 22 15.6617V15.3497H17.7689C15.8052 15.3497 14.2133 13.7976 14.2133 11.8831C14.2133 9.96861 15.8052 8.41659 17.7689 8.41659V8.38192ZM17.7689 9.87253H21.2533C21.6657 9.87253 22 10.1985 22 10.6005V13.1311C21.9952 13.5312 21.6637 13.8544 21.2533 13.8591H17.8489C16.8548 13.8721 15.9855 13.2085 15.76 12.2644C15.6471 11.6784 15.8056 11.0737 16.1931 10.6123C16.5805 10.151 17.1573 9.8802 17.7689 9.87253ZM17.92 12.5331H18.2489C18.6711 12.5331 19.0133 12.1994 19.0133 11.7878C19.0133 11.3762 18.6711 11.0425 18.2489 11.0425H17.92C17.7181 11.0402 17.5236 11.1168 17.38 11.2552C17.2364 11.3936 17.1555 11.5823 17.1556 11.7791C17.1555 12.1922 17.4964 12.5284 17.92 12.5331ZM6.73778 8.38192H12.3822C12.8044 8.38192 13.1467 8.04824 13.1467 7.63662C13.1467 7.225 12.8044 6.89131 12.3822 6.89131H6.73778C6.31903 6.89128 5.9782 7.21972 5.97333 7.62795C5.97331 8.041 6.31415 8.37717 6.73778 8.38192Z" fill="#e6e7e7"/>
</svg>
