<svg width="24" height="24" viewBox="0 0 24 24" fill="none" xmlns="http://www.w3.org/2000/svg">
<path d="M17.8877 10.8968C19.2827 10.7008 20.3567 9.50479 20.3597 8.05579C20.3597 6.62779 19.3187 5.44379 17.9537 5.21979" stroke="#e6e7e7" stroke-width="1.5" stroke-linecap="round" stroke-linejoin="round"/>
<path d="M19.7285 14.2504C21.0795 14.4524 22.0225 14.9254 22.0225 15.9004C22.0225 16.5714 21.5785 17.0074 20.8605 17.2814" stroke="#e6e7e7" stroke-width="1.5" stroke-linecap="round" stroke-linejoin="round"/>
<path fill-rule="evenodd" clip-rule="evenodd" d="M11.8867 14.6639C8.67273 14.6639 5.92773 15.1509 5.92773 17.0959C5.92773 19.0399 8.65573 19.5409 11.8867 19.5409C15.1007 19.5409 17.8447 19.0589 17.8447 17.1129C17.8447 15.1669 15.1177 14.6639 11.8867 14.6639Z" stroke="#e6e7e7" stroke-width="1.5" stroke-linecap="round" stroke-linejoin="round"/>
<path fill-rule="evenodd" clip-rule="evenodd" d="M11.8867 11.888C13.9957 11.888 15.7057 10.179 15.7057 8.069C15.7057 5.96 13.9957 4.25 11.8867 4.25C9.77766 4.25 8.06766 5.96 8.06766 8.069C8.05966 10.171 9.75666 11.881 11.8587 11.888H11.8867Z" stroke="#e6e7e7" stroke-width="1.5" stroke-linecap="round" stroke-linejoin="round"/>
<path d="M5.88472 10.8968C4.48872 10.7008 3.41572 9.50479 3.41272 8.05579C3.41272 6.62779 4.45372 5.44379 5.81872 5.21979" stroke="#e6e7e7" stroke-width="1.5" stroke-linecap="round" stroke-linejoin="round"/>
<path d="M4.04388 14.2504C2.69288 14.4524 1.74988 14.9254 1.74988 15.9004C1.74988 16.5714 2.19388 17.0074 2.91188 17.2814" stroke="#e6e7e7" stroke-width="1.5" stroke-linecap="round" stroke-linejoin="round"/>
</svg>
