<svg width="24" height="24" viewBox="0 0 24 24" fill="none" xmlns="http://www.w3.org/2000/svg">
<path fill-rule="evenodd" clip-rule="evenodd" d="M15.0402 4.05144C16.0502 4.45344 16.3592 5.85344 16.7722 6.30344C17.1852 6.75344 17.7762 6.90644 18.1032 6.90644C19.8412 6.90644 21.2502 8.31544 21.2502 10.0524V15.8474C21.2502 18.1774 19.3602 20.0674 17.0302 20.0674H6.97024C4.63924 20.0674 2.75024 18.1774 2.75024 15.8474V10.0524C2.75024 8.31544 4.15924 6.90644 5.89724 6.90644C6.22324 6.90644 6.81424 6.75344 7.22824 6.30344C7.64124 5.85344 7.94924 4.45344 8.95924 4.05144C9.97024 3.64944 14.0302 3.64944 15.0402 4.05144Z" stroke="#e6e7e7" stroke-width="1.5" stroke-linecap="round" stroke-linejoin="round"/>
<path d="M17.4955 9.50012H17.5045" stroke="#e6e7e7" stroke-width="2" stroke-linecap="round" stroke-linejoin="round"/>
<path fill-rule="evenodd" clip-rule="evenodd" d="M15.1789 13.1282C15.1789 11.3722 13.7559 9.94916 11.9999 9.94916C10.2439 9.94916 8.82092 11.3722 8.82092 13.1282C8.82092 14.8842 10.2439 16.3072 11.9999 16.3072C13.7559 16.3072 15.1789 14.8842 15.1789 13.1282Z" stroke="#e6e7e7" stroke-width="1.5" stroke-linecap="round" stroke-linejoin="round"/>
</svg>
