<svg width="24" height="24" viewBox="0 0 24 24" fill="none" xmlns="http://www.w3.org/2000/svg">
<path d="M4.79489 7.05613C4.79489 5.80713 5.80689 4.79513 7.05589 4.79413H8.08489C8.68189 4.79413 9.25389 4.55713 9.67789 4.13713L10.3969 3.41713C11.2779 2.53113 12.7099 2.52713 13.5959 3.40813L13.5969 3.40913L13.6059 3.41713L14.3259 4.13713C14.7499 4.55813 15.3219 4.79413 15.9189 4.79413H16.9469C18.1959 4.79413 19.2089 5.80613 19.2089 7.05613V8.08313C19.2089 8.68013 19.4449 9.25313 19.8659 9.67713L20.5859 10.3971C21.4719 11.2781 21.4769 12.7101 20.5959 13.5961L20.5949 13.5971L20.5859 13.6061L19.8659 14.3261C19.4449 14.7491 19.2089 15.3211 19.2089 15.9181V16.9471C19.2089 18.1961 18.1969 19.2081 16.9479 19.2081H16.9469H15.9169C15.3199 19.2081 14.7469 19.4451 14.3239 19.8661L13.6039 20.5851C12.7239 21.4711 11.2929 21.4761 10.4069 20.5971C10.4059 20.5961 10.4049 20.5951 10.4039 20.5941L10.3949 20.5851L9.67589 19.8661C9.25289 19.4451 8.67989 19.2091 8.08289 19.2081H7.05589C5.80689 19.2081 4.79489 18.1961 4.79489 16.9471V15.9161C4.79489 15.3191 4.55789 14.7471 4.13689 14.3241L3.41789 13.6041C2.53189 12.7241 2.52689 11.2931 3.40689 10.4071C3.40689 10.4061 3.40789 10.4051 3.40889 10.4041L3.41789 10.3951L4.13689 9.67513C4.55789 9.25113 4.79489 8.67913 4.79489 8.08113V7.05613" stroke="#e6e7e7" stroke-width="1.5" stroke-linecap="round" stroke-linejoin="round"/>
<path d="M9.43164 14.5718L14.5716 9.43182" stroke="#e6e7e7" stroke-width="1.5" stroke-linecap="round" stroke-linejoin="round"/>
<path d="M14.4955 14.5001H14.5045" stroke="#e6e7e7" stroke-width="2" stroke-linecap="round" stroke-linejoin="round"/>
<path d="M9.4955 9.50012H9.5045" stroke="#e6e7e7" stroke-width="2" stroke-linecap="round" stroke-linejoin="round"/>
</svg>
