<svg width="24" height="24" viewBox="0 0 24 24" fill="none" xmlns="http://www.w3.org/2000/svg">
<path fill-rule="evenodd" clip-rule="evenodd" d="M17.2779 13.8893C17.9527 13.8893 18.519 14.4461 18.4158 15.1125C17.8106 19.0325 14.4548 21.943 10.4074 21.943C5.92952 21.943 2.30005 18.3135 2.30005 13.8367C2.30005 10.1482 5.10215 6.71245 8.25689 5.93561C8.93479 5.76824 9.62952 6.24509 9.62952 6.94298C9.62952 11.6714 9.78847 12.8946 10.6864 13.5598C11.5843 14.2251 12.64 13.8893 17.2779 13.8893Z" stroke="#e6e7e7" stroke-width="1.5" stroke-linecap="round" stroke-linejoin="round"/>
<path fill-rule="evenodd" clip-rule="evenodd" d="M21.6926 9.95173C21.7463 6.91383 18.0147 2.01699 13.4674 2.1012C13.1137 2.10752 12.8305 2.40225 12.8147 2.75488C12.7 5.25278 12.8547 8.48962 12.9411 9.95699C12.9674 10.4138 13.3263 10.7728 13.7821 10.7991C15.2905 10.8854 18.6453 11.0033 21.1074 10.6307C21.4421 10.5801 21.6874 10.2896 21.6926 9.95173Z" stroke="#e6e7e7" stroke-width="1.5" stroke-linecap="round" stroke-linejoin="round"/>
</svg>
