<svg width="24" height="24" viewBox="0 0 24 24" fill="none" xmlns="http://www.w3.org/2000/svg">
<path d="M9.15722 20.7715V17.7048C9.1572 16.9248 9.79312 16.2909 10.581 16.2857H13.4671C14.2587 16.2857 14.9005 16.9211 14.9005 17.7048V17.7048V20.781C14.9003 21.4433 15.4343 21.9846 16.103 22.0001H18.0271C19.9451 22.0001 21.5 20.4608 21.5 18.562V18.562V9.83796C21.4898 9.09095 21.1355 8.38947 20.538 7.93315L13.9577 2.68542C12.8049 1.77169 11.1662 1.77169 10.0134 2.68542L3.46203 7.94268C2.86226 8.39714 2.50739 9.09979 2.5 9.84748V18.562C2.5 20.4608 4.05488 22.0001 5.97291 22.0001H7.89696C8.58235 22.0001 9.13797 21.4501 9.13797 20.7715V20.7715" stroke="#e6e7e7" stroke-width="1.5" stroke-linecap="round" stroke-linejoin="round"/>
</svg>
