<svg width="24" height="24" viewBox="0 0 24 24" fill="none" xmlns="http://www.w3.org/2000/svg">
<path fill-rule="evenodd" clip-rule="evenodd" d="M16.3028 2.74994H7.65076C4.63876 2.74994 2.74976 4.88394 2.74976 7.90394V16.0499C2.74976 19.0699 4.63076 21.2039 7.65076 21.2039H16.2978C19.3228 21.2039 21.2028 19.0699 21.2028 16.0499V7.90394C21.2068 4.88394 19.3258 2.74994 16.3028 2.74994Z" stroke="#e6e7e7" stroke-width="1.5" stroke-linecap="round" stroke-linejoin="round"/>
<path fill-rule="evenodd" clip-rule="evenodd" d="M10.7031 8.78515C10.7031 9.80515 9.87711 10.6311 8.85711 10.6311C7.83811 10.6311 7.01111 9.80515 7.01111 8.78515C7.01111 7.76515 7.83811 6.93915 8.85711 6.93915C9.87611 6.94015 10.7021 7.76615 10.7031 8.78515Z" stroke="#e6e7e7" stroke-width="1.5" stroke-linecap="round" stroke-linejoin="round"/>
<path d="M21.207 14.9512C20.284 14.0012 18.509 12.0822 16.579 12.0822C14.648 12.0822 13.535 16.3152 11.678 16.3152C9.821 16.3152 8.134 14.4012 6.646 15.6282C5.158 16.8542 3.75 19.3612 3.75 19.3612" stroke="#e6e7e7" stroke-width="1.5" stroke-linecap="round" stroke-linejoin="round"/>
</svg>
