<svg width="24" height="24" viewBox="0 0 24 24" fill="none" xmlns="http://www.w3.org/2000/svg">
<path fill-rule="evenodd" clip-rule="evenodd" d="M16.3341 2.75021H7.66512C4.64412 2.75021 2.75012 4.88921 2.75012 7.91621V16.0842C2.75012 19.1112 4.63512 21.2502 7.66512 21.2502H16.3331C19.3641 21.2502 21.2501 19.1112 21.2501 16.0842V7.91621C21.2501 4.88921 19.3641 2.75021 16.3341 2.75021Z" stroke="#e6e7e7" stroke-width="1.5" stroke-linecap="round" stroke-linejoin="round"/>
<path fill-rule="evenodd" clip-rule="evenodd" d="M10.6891 12.0002C10.6891 13.0232 9.86011 13.8522 8.83711 13.8522C7.81411 13.8522 6.98511 13.0232 6.98511 12.0002C6.98511 10.9772 7.81411 10.1482 8.83711 10.1482H8.84011C9.86111 10.1492 10.6891 10.9782 10.6891 12.0002Z" stroke="#e6e7e7" stroke-width="1.5" stroke-linecap="round" stroke-linejoin="round"/>
<path d="M10.692 12.0002H17.01V13.8522" stroke="#e6e7e7" stroke-width="1.5" stroke-linecap="round" stroke-linejoin="round"/>
<path d="M14.1818 13.8523V12.0003" stroke="#e6e7e7" stroke-width="1.5" stroke-linecap="round" stroke-linejoin="round"/>
</svg>
