<svg width="21" height="18" viewBox="0 0 21 18" fill="none" xmlns="http://www.w3.org/2000/svg">
<path fill-rule="evenodd" clip-rule="evenodd" d="M14.095 11.0271C14.636 10.0232 14.9426 8.87658 14.9426 7.65892C14.9426 3.70516 11.7095 0.5 7.7213 0.5C3.73309 0.5 0.5 3.70516 0.5 7.65892C0.5 11.6127 3.73309 14.8178 7.7213 14.8178C9.76014 14.8178 11.6016 13.9802 12.9147 12.6331L18.8042 17.2766C19.2379 17.6185 19.8877 17.5618 20.2556 17.1498C20.6234 16.7379 20.5701 16.1268 20.1364 15.7848L14.1712 11.0817C14.1465 11.0622 14.1211 11.044 14.095 11.0271ZM7.7213 13.7451C4.33069 13.7451 1.58206 11.0202 1.58206 7.65892C1.58206 4.2976 4.33069 1.57271 7.7213 1.57271C11.1119 1.57271 13.8605 4.2976 13.8605 7.65892C13.8605 11.0202 11.1119 13.7451 7.7213 13.7451Z" fill="#E6E7E7"/>
</svg>
