<svg width="24" height="24" viewBox="0 0 24 24" fill="none" xmlns="http://www.w3.org/2000/svg">
<path fill-rule="evenodd" clip-rule="evenodd" d="M20.8067 7.62368L20.1842 6.54358C19.6577 5.62966 18.4907 5.31438 17.5755 5.83878V5.83878C17.1399 6.09541 16.6201 6.16821 16.1307 6.04115C15.6413 5.91408 15.2226 5.59758 14.9668 5.16143C14.8023 4.88421 14.7139 4.56846 14.7105 4.2461V4.2461C14.7254 3.72928 14.5304 3.22846 14.17 2.85773C13.8096 2.487 13.3145 2.27792 12.7975 2.27814H11.5435C11.037 2.27813 10.5513 2.47998 10.194 2.83901C9.83669 3.19804 9.63717 3.68465 9.63961 4.19118V4.19118C9.6246 5.23699 8.77248 6.07687 7.72657 6.07676C7.40421 6.07342 7.08846 5.98501 6.81123 5.82047V5.82047C5.89606 5.29607 4.72911 5.61136 4.20254 6.52528L3.53435 7.62368C3.00841 8.53645 3.3194 9.70267 4.23 10.2324V10.2324C4.8219 10.5741 5.18653 11.2057 5.18653 11.8891C5.18653 12.5726 4.8219 13.2041 4.23 13.5459V13.5459C3.32056 14.072 3.00923 15.2354 3.53435 16.1454V16.1454L4.16593 17.2347C4.41265 17.6798 4.8266 18.0084 5.31619 18.1475C5.80578 18.2866 6.33064 18.225 6.77462 17.9761V17.9761C7.21108 17.7214 7.73119 17.6516 8.21934 17.7823C8.70749 17.9129 9.12324 18.2331 9.37416 18.6717C9.5387 18.949 9.62711 19.2647 9.63046 19.5871V19.5871C9.63046 20.6436 10.487 21.5001 11.5435 21.5001H12.7975C13.8505 21.5001 14.7055 20.6492 14.7105 19.5962V19.5962C14.7081 19.0881 14.9089 18.6001 15.2682 18.2408C15.6275 17.8815 16.1155 17.6807 16.6236 17.6832C16.9452 17.6918 17.2596 17.7798 17.5389 17.9395V17.9395C18.4517 18.4654 19.6179 18.1544 20.1476 17.2438V17.2438L20.8067 16.1454C21.0618 15.7076 21.1318 15.1861 21.0012 14.6964C20.8706 14.2068 20.5502 13.7894 20.111 13.5367V13.5367C19.6718 13.284 19.3514 12.8666 19.2208 12.377C19.0902 11.8874 19.1603 11.3659 19.4154 10.928C19.5812 10.6384 19.8214 10.3983 20.111 10.2324V10.2324C21.0161 9.70295 21.3264 8.54355 20.8067 7.63283V7.63283V7.62368Z" stroke="#e6e7e7" stroke-width="1.5" stroke-linecap="round" stroke-linejoin="round"/>
<circle cx="12.175" cy="11.8891" r="2.63616" stroke="#e6e7e7" stroke-width="1.5" stroke-linecap="round" stroke-linejoin="round"/>
</svg>
