<svg width="24" height="24" viewBox="0 0 24 24" fill="none" xmlns="http://www.w3.org/2000/svg">
<path fill-rule="evenodd" clip-rule="evenodd" d="M13.1043 4.17713L14.9317 7.82788C15.1108 8.18628 15.4565 8.4348 15.8573 8.4923L19.9453 9.08074C20.9554 9.22656 21.3573 10.4507 20.6263 11.1521L17.6702 13.9926C17.3797 14.2719 17.2474 14.6734 17.3162 15.0678L18.0138 19.0779C18.1856 20.07 17.1298 20.8268 16.227 20.3575L12.5732 18.4628C12.215 18.2769 11.786 18.2769 11.4268 18.4628L7.773 20.3575C6.87023 20.8268 5.81439 20.07 5.98724 19.0779L6.68385 15.0678C6.75257 14.6734 6.62033 14.2719 6.32982 13.9926L3.37368 11.1521C2.64272 10.4507 3.04464 9.22656 4.05466 9.08074L8.14265 8.4923C8.54354 8.4348 8.89028 8.18628 9.06937 7.82788L10.8957 4.17713C11.3477 3.27445 12.6523 3.27445 13.1043 4.17713Z" stroke="#e6e7e7" stroke-width="1.5" stroke-linecap="round" stroke-linejoin="round"/>
</svg>
