<svg width="24" height="24" viewBox="0 0 24 24" fill="none" xmlns="http://www.w3.org/2000/svg">
<path d="M13.8497 4.25043V6.67043" stroke="#e6e7e7" stroke-width="1.5" stroke-linecap="round" stroke-linejoin="round"/>
<path d="M13.8497 17.7603V19.7843" stroke="#e6e7e7" stroke-width="1.5" stroke-linecap="round" stroke-linejoin="round"/>
<path d="M13.8497 14.3247V9.50372" stroke="#e6e7e7" stroke-width="1.5" stroke-linecap="round" stroke-linejoin="round"/>
<path fill-rule="evenodd" clip-rule="evenodd" d="M18.7021 20.0001C20.5242 20.0001 22 18.5427 22 16.7433V14.1508C20.7943 14.1508 19.8233 13.1918 19.8233 12.0012C19.8233 10.8105 20.7943 9.85051 22 9.85051L21.999 7.25698C21.999 5.45757 20.5221 4.00012 18.7011 4.00012H5.29892C3.47789 4.00012 2.00104 5.45757 2.00104 7.25698L2 9.93497C3.20567 9.93497 4.17668 10.8105 4.17668 12.0012C4.17668 13.1918 3.20567 14.1508 2 14.1508V16.7433C2 18.5427 3.4758 20.0001 5.29787 20.0001H18.7021Z" stroke="#e6e7e7" stroke-width="1.5" stroke-linecap="round" stroke-linejoin="round"/>
</svg>
