<svg width="24" height="24" viewBox="0 0 24 24" fill="none" xmlns="http://www.w3.org/2000/svg">
<path fill-rule="evenodd" clip-rule="evenodd" d="M2.50185 12.0003C2.49906 13.2299 2.44419 14.9071 3.20494 15.534C3.91453 16.1188 4.41395 15.9682 5.70945 16.0632C7.00587 16.1592 9.74195 19.9701 11.8512 18.7647C12.9393 17.909 13.0202 16.1152 13.0202 12.0003C13.0202 7.88528 12.9393 6.09147 11.8512 5.23583C9.74195 4.0295 7.00587 7.84133 5.70945 7.9373C4.41395 8.03237 3.91453 7.88169 3.20494 8.46647C2.44419 9.0934 2.49906 10.7706 2.50185 12.0003Z" stroke="#e6e7e7" stroke-width="1.5" stroke-linecap="round" stroke-linejoin="round"/>
<path d="M19.5842 5.90411C22.1343 9.57513 22.1427 14.4175 19.5842 18.0957" stroke="#e6e7e7" stroke-width="1.5" stroke-linecap="round" stroke-linejoin="round"/>
<path d="M17.0813 8.31451C18.3926 10.6052 18.3926 13.4026 17.0813 15.6861" stroke="#e6e7e7" stroke-width="1.5" stroke-linecap="round" stroke-linejoin="round"/>
</svg>
