<svg width="24" height="24" viewBox="0 0 24 24" fill="none" xmlns="http://www.w3.org/2000/svg">
<path fill-rule="evenodd" clip-rule="evenodd" d="M14.5328 9.46716L7.71351 16.287C7.53626 16.1844 7.36835 16.1191 7.21909 16.1097C5.92239 16.0164 5.41864 16.1657 4.70965 15.5593C3.9447 14.9062 4.00067 13.1616 4.00067 11.8835C4.00067 10.6054 3.9447 8.86075 4.70965 8.20769C5.41864 7.60128 5.92239 7.75988 7.21909 7.65725C8.51578 7.55463 11.2584 3.59894 13.3761 4.84909C14.2343 5.5488 14.4675 6.85492 14.5328 9.46716Z" stroke="#e6e7e7" stroke-width="1.5" stroke-linecap="round" stroke-linejoin="round"/>
<path d="M14.5329 13.9173C14.4956 16.7908 14.2717 18.1902 13.3762 18.9179C12.3966 19.4963 11.2865 18.9645 10.2417 18.2088" stroke="#e6e7e7" stroke-width="1.5" stroke-linecap="round" stroke-linejoin="round"/>
<path d="M4.00122 20.0001L7.71406 16.287L14.5334 9.46718L20 4.00012" stroke="#e6e7e7" stroke-width="1.5" stroke-linecap="round" stroke-linejoin="round"/>
</svg>
