<svg width="24" height="24" viewBox="0 0 24 24" fill="none" xmlns="http://www.w3.org/2000/svg">
<path d="M11.9951 16.6769V14.1399" stroke="#e6e7e7" stroke-width="1.5" stroke-linecap="round" stroke-linejoin="round"/>
<path fill-rule="evenodd" clip-rule="evenodd" d="M18.1899 5.33032C19.8799 5.33032 21.2399 6.70032 21.2399 8.39032V11.8303C18.7799 13.2703 15.5299 14.1403 11.9899 14.1403C8.44988 14.1403 5.20988 13.2703 2.74988 11.8303V8.38032C2.74988 6.69032 4.11988 5.33032 5.80988 5.33032H18.1899Z" stroke="#e6e7e7" stroke-width="1.5" stroke-linecap="round" stroke-linejoin="round"/>
<path d="M15.4951 5.32591V4.95991C15.4951 3.73991 14.5051 2.74991 13.2851 2.74991H10.7051C9.48512 2.74991 8.49512 3.73991 8.49512 4.95991V5.32591" stroke="#e6e7e7" stroke-width="1.5" stroke-linecap="round" stroke-linejoin="round"/>
<path d="M2.77441 15.4831L2.96341 17.9921C3.09141 19.6831 4.50041 20.9901 6.19541 20.9901H17.7944C19.4894 20.9901 20.8984 19.6831 21.0264 17.9921L21.2154 15.4831" stroke="#e6e7e7" stroke-width="1.5" stroke-linecap="round" stroke-linejoin="round"/>
</svg>
