<svg xmlns="http://www.w3.org/2000/svg" viewBox="0 0 400 400" fill="none" shape-rendering="auto"><metadata xmlns:rdf="http://www.w3.org/1999/02/22-rdf-syntax-ns#" xmlns:xsi="http://www.w3.org/2001/XMLSchema-instance" xmlns:dc="http://purl.org/dc/elements/1.1/" xmlns:dcterms="http://purl.org/dc/terms/"><rdf:RDF><rdf:Description><dc:title>Adventurer Neutral</dc:title><dc:creator>Lisa Wischofsky</dc:creator><dc:source xsi:type="dcterms:URI">https://www.figma.com/community/file/1184595184137881796</dc:source><dcterms:license xsi:type="dcterms:URI">https://creativecommons.org/licenses/by/4.0/</dcterms:license><dc:rights>Remix of „Adventurer Neutral” (https://www.figma.com/community/file/1184595184137881796) by „Lisa Wischofsky”, licensed under „CC BY 4.0” (https://creativecommons.org/licenses/by/4.0/)</dc:rights></rdf:Description></rdf:RDF></metadata><mask id="viewboxMask"><rect width="400" height="400" rx="0" ry="0" x="0" y="0" fill="#fff" /></mask><g mask="url(#viewboxMask)"><rect fill="url(#backgroundLinear)" width="400" height="400" x="0" y="0" /><defs><linearGradient id="backgroundLinear" gradientTransform="rotate(52 0.5 0.5)"><stop stop-color="#c0aede"/><stop offset="1" stop-color="#d1d4f9"/></linearGradient></defs><g transform="translate(-279 -322)"><path d="M556 424.07a65.21 65.21 0 0 1 41.05 13.82c18.48 14.28 28.2 38.6 24.23 61.66-.97 7.55-3.9 14.28-6.79 21.23-1.4.65-2.88 1.52-4.42 1.77-2.33.07-4.8-.9-7.04-1.55a178.7 178.7 0 0 0-49.03-7.62c-15.06.4-29.61 2.56-43.09 9.64-3.05 1.28-5.82 4.03-8.96 1.26-8.58-12.42-11.56-28.46-9.81-43.32a65.03 65.03 0 0 1 19.83-39A65.11 65.11 0 0 1 556 424.07Z" fill="#000"/><path d="M557 429.85c13.7-.2 27.1 4.84 37.68 13.45a59.16 59.16 0 0 1 19.44 29.7 59.28 59.28 0 0 1-4.3 43.5c-5.35-.6-10.17-2.64-15.46-3.77-16.05-3.75-32.92-5.8-49.39-4.47a92 92 0 0 0-39.3 11.6c-7.05-12.13-10.2-27-7.45-40.83a59.55 59.55 0 0 1 23.8-38.03c10.11-7.24 22.5-11.37 34.98-11.15Z" fill="#fff"/><path d="M381.31 447.08a55.36 55.36 0 0 1 37.02 9.56 55.02 55.02 0 0 1 22.82 35.91c1.2 8.25.97 17.09-1.57 25.09a54.9 54.9 0 0 1-30.47 34.5 55.24 55.24 0 0 1-41.44 1.17 54.92 54.92 0 0 1-27.48-22.52c-5.05-8.05-7.68-17.27-8.31-26.7-.33-12.57 3.39-25.15 11-35.22a55.1 55.1 0 0 1 38.43-21.8Z" fill="#000"/><path d="M376.49 453.67c18.14-4.16 37.8 3.04 49.17 17.7 8.7 11.04 12.73 26.33 9.55 40.13a48.84 48.84 0 0 1-14.55 26.16 49.53 49.53 0 0 1-29.63 13.27c-19.64 1.82-39.23-9.24-48.03-26.86a49.25 49.25 0 0 1 33.5-70.4Z" fill="#fff"/><path d="M519.39 474.75c8.57-2.25 17.85 3.55 19.35 12.31 1.85 8.26-3.88 16.87-12.14 18.52-9.15 2.3-18.91-5.05-19.05-14.53-.72-7.5 4.64-14.5 11.84-16.3ZM403.4 485.62c6.37-2.18 13.28.5 17.27 5.7 4.54 5.94 4.18 14.91-1.03 20.32-5.02 5.79-14.5 6.76-20.65 2.39a15.82 15.82 0 0 1-6.92-13c-.26-6.95 4.69-13.5 11.33-15.4Z" fill="#000"/></g><g transform="translate(-279 -322)"><path d="M414.18 389.84c-5.5-7.26-14.52-9.33-23.2-8.38-13.12 1.9-24.56 8.53-34.46 17.08-10.76 9.47-19.88 21.7-24.72 35.27-.66 1.92-1.27 4.69 1.03 5.74 2.1.24 2.83.08 4.11-1.6 11.58-14.9 26.26-27.61 43.54-35.44 8.2-3.6 17.55-6.09 26.55-5.69 1.03.04 2.1.21 3.15.39 1.67.27 3.35.55 4.96.3 2.9-2.23.74-5.27-.86-7.53l-.1-.14ZM592.9 408.15c-18.2-10.23-38.04-17.1-58.92-18.97-10.05-.75-21.44-.2-30.72 4.09-6.76 3.16-12.37 8.56-13.57 16.22l-.12.95c-.38 2.89-.88 6.8 1.32 8.78 1.99.78 3.6-.34 5.23-1.46.74-.51 1.49-1.03 2.27-1.36 13.86-6.86 30.29-9.28 45.61-9.7 15.48.06 31.36 2.13 46.03 7.2l.48.13c1.46.4 2.74.74 3.89-.62 1.8-1.88.48-4.24-1.5-5.25Z" fill="#000"/></g><g transform="translate(-279 -322)"><path d="M480.96 561.69c4.71-.58 10.26.05 13.71 3.66 3.78 3.9 4.15 9.42 3.22 14.53-2.65 11.8-12.87 21.43-24.84 23.27-7.5 1.5-15.57-.3-22.15-4.05-5.15-2.9-8.86-7.64-11.08-13.06-1.31-3.29-1.62-7.23-.43-10.59 1.3-3.11 4.12-5 7.34-5.7 5.66-1.83 11.66.27 16.63 3.05 4.58-5.09 10.57-10.17 17.59-11.1Z" fill="#000"/><path d="M480.51 567.7c3.3-1.03 7.38-.57 10 1.78 2.06 2.03 2.11 5.89 1.71 8.56-1.84 9.78-10.28 17.74-20.07 19.32-6.52 1.3-13.19-.33-18.84-3.68-4.3-2.52-7.44-6.98-8.81-11.72-.7-2.45-.36-5.07 2.04-6.38 2.59-1.08 5.76-1.02 8.48-.5 3.48.7 5.8 2.92 8.97 4.33 1.93-.09 2.62-1.39 3.81-2.64 3.32-3.94 7.69-7.62 12.7-9.07Z" fill="#8F2E45"/></g><g transform="translate(-279 -322)"></g></g></svg>