<svg xmlns="http://www.w3.org/2000/svg" viewBox="0 0 400 400" fill="none" shape-rendering="auto"><metadata xmlns:rdf="http://www.w3.org/1999/02/22-rdf-syntax-ns#" xmlns:xsi="http://www.w3.org/2001/XMLSchema-instance" xmlns:dc="http://purl.org/dc/elements/1.1/" xmlns:dcterms="http://purl.org/dc/terms/"><rdf:RDF><rdf:Description><dc:title>Adventurer Neutral</dc:title><dc:creator>Lisa Wischofsky</dc:creator><dc:source xsi:type="dcterms:URI">https://www.figma.com/community/file/1184595184137881796</dc:source><dcterms:license xsi:type="dcterms:URI">https://creativecommons.org/licenses/by/4.0/</dcterms:license><dc:rights>Remix of „Adventurer Neutral” (https://www.figma.com/community/file/1184595184137881796) by „Lisa Wischofsky”, licensed under „CC BY 4.0” (https://creativecommons.org/licenses/by/4.0/)</dc:rights></rdf:Description></rdf:RDF></metadata><mask id="viewboxMask"><rect width="400" height="400" rx="0" ry="0" x="0" y="0" fill="#fff" /></mask><g mask="url(#viewboxMask)"><rect fill="#d1d4f9" width="400" height="400" x="0" y="0" /><g transform="translate(-279 -322)"><path d="M555 424.09a65.26 65.26 0 0 1 42.06 13.81c18.47 14.28 28.15 38.55 24.23 61.62-1 7.61-3.96 14.36-6.83 21.38-1.43.6-2.9 1.25-4.4 1.62-3.14-.02-6.34-1.4-9.37-2.2a176.16 176.16 0 0 0-47.7-6.93c-13.29.44-27.28 2.39-39.33 8.3-2.83 1.28-5.6 3-8.59 3.86-3.52-.25-4.36-3.15-5.94-5.74-7.02-13.13-9.05-28.5-6.31-43.08a64.94 64.94 0 0 1 19.15-34.8A65.1 65.1 0 0 1 555 424.1Z" fill="#000"/><path d="M557 429.85c13.47-.19 26.63 4.66 37.13 13a59.2 59.2 0 0 1 20 30.16c4.23 14.46 2.5 30.12-4.26 43.54-6.14-.92-11.86-3.14-17.94-4.39-16.73-3.67-34.37-5.5-51.43-3.48a91.33 91.33 0 0 0-34.84 11.18c-6.86-11.98-10.07-26.23-7.6-39.92 2-12.66 8.2-24.57 17.41-33.47 10.95-10.62 26.24-16.88 41.53-16.62Z" fill="#fff"/><path d="M381.25 447.09a55.37 55.37 0 0 1 36.48 9.14 55.05 55.05 0 0 1 23.4 36.2c1.25 8.36.98 17.28-1.59 25.37a54.9 54.9 0 0 1-23.86 30.9 54.63 54.63 0 0 1-34.72 7.72 54.72 54.72 0 0 1-39.57-23.79c-5.78-8.44-8.88-18.4-9.5-28.58-.36-12.78 3.55-25.6 11.4-35.73a55.12 55.12 0 0 1 37.96-21.23Z" fill="#000"/><path d="M376.5 453.66a48.91 48.91 0 0 1 33.29 4.5c17.34 8.92 28.1 28.43 26.3 47.84-1.14 11.3-5.91 22.08-13.92 30.17A49.58 49.58 0 0 1 391 550.94c-19.4 1.77-38.75-9-47.7-26.26a49.34 49.34 0 0 1 2.47-49.94 49.32 49.32 0 0 1 30.73-21.08Z" fill="#fff"/><path d="M519.43 474.74c8.56-2.21 17.77 3.55 19.3 12.29 1.86 8.33-3.88 16.92-12.2 18.57-9.2 2.17-18.82-5.06-18.99-14.6-.68-7.5 4.66-14.47 11.9-16.26ZM403.43 485.61c9.52-3.24 20.05 4.4 20.34 14.34.81 8.84-6.85 17.06-15.74 16.75-8.62.39-16.04-7.14-15.96-15.68-.25-6.97 4.7-13.5 11.36-15.4ZM598.82 532.68c1.05.34 2.1.7 3.16 1.06-.43 1.65-.27 3.3-1.72 4.43-6.9 5.73-16.13 10.13-25.25 9.91-3.84-.08-8.61-1-11.46-3.78-.26-1.17-.33-2.4-.44-3.59l2.82-.93c4.52 2.16 9.07 3.47 14.1 2.21 7.46-1.28 12.59-5.5 18.8-9.3ZM347.06 547.76c2.26-.5 3.85 1.46 5.53 2.62 9.4 7.75 21.34 11.38 33.42 11.45 5.83.1 10.84-2.25 16.7-1.34-.5 2.38-.06 4.38-2.93 5.06-18.1 4.87-38.96.17-52.89-12.5-1.77-1.37-2.24-4.32.17-5.29Z" fill="#000"/></g><g transform="translate(-279 -322)"><path d="M414.18 389.84c-5.5-7.26-14.52-9.33-23.2-8.38-13.12 1.9-24.56 8.53-34.46 17.08-10.76 9.47-19.88 21.7-24.72 35.27-.66 1.92-1.27 4.69 1.03 5.74 2.1.24 2.83.08 4.11-1.6 11.58-14.9 26.26-27.61 43.54-35.44 8.2-3.6 17.55-6.09 26.55-5.69 1.03.04 2.1.21 3.15.39 1.67.27 3.35.55 4.96.3 2.9-2.23.74-5.27-.86-7.53l-.1-.14ZM592.9 408.15c-18.2-10.23-38.04-17.1-58.92-18.97-10.05-.75-21.44-.2-30.72 4.09-6.76 3.16-12.37 8.56-13.57 16.22l-.12.95c-.38 2.89-.88 6.8 1.32 8.78 1.99.78 3.6-.34 5.23-1.46.74-.51 1.49-1.03 2.27-1.36 13.86-6.86 30.29-9.28 45.61-9.7 15.48.06 31.36 2.13 46.03 7.2l.48.13c1.46.4 2.74.74 3.89-.62 1.8-1.88.48-4.24-1.5-5.25Z" fill="#000"/></g><g transform="translate(-279 -322)"><path d="M514.98 571.8c9.94-.79 20.34-.67 29.5 3.7 4.76 2.28 8.77 6.1 9.74 11.45.87 5.24-1.16 9.93-4.1 14.14-5.1 7.1-13.02 12.35-20.61 16.48-16.5 8.76-34.08 12.05-52.5 13.76-20.25 3.08-41.64-1.62-59.12-12.17-6.2-3.9-12.82-9.26-16.03-16-2.56-5.26-2.25-12 1.93-16.37 4.77-5.2 12.43-7.15 19.2-7.88 15.6-1.27 30.57 2.31 44.79 8.5a117.73 117.73 0 0 1 47.2-15.61Z" fill="#000"/><path d="M540.41 580c-3.76 3.21-7.89 5.79-12.13 8.3-2.67 1.53-3.75 4.13-5.44 6.6a30.23 30.23 0 0 1-5.75 6.71c-3.02-1.1-5.96-2.85-9.11-3.5-3.03.45-5.9 1.87-8.86 2.66-10.02 2.86-20.67 5-31.12 4.92-2.95-.04-5.77.19-8.66.8.26 2.48-.5 4.68 2.82 5.02 14.67.86 29.74-2 43.63-6.66 4.74-2.07 7.69 3.08 12.84 1.72 4.35-1.27 7.37-6.6 9.92-10.06 1.78-2.8 4.43-4.12 7.14-5.82 3.66-2.24 6.97-4.85 10.35-7.47 1.44 2.56 3.17 4.68 2.42 7.82-1.4 6.39-6.6 11-11.48 14.92-12.52 9.5-28.96 14.76-44.24 17.66-14.5 1.98-28 4.19-42.61 1.47-12.77-2.46-26.17-7.5-36.14-16.1-3.77-3.4-8.37-8.52-7.81-14 .33-3.74 3.92-6.31 7.09-7.71 7.95-3.35 16.73-3.08 25.15-2.22 8.7 1.23 17.39 3.52 25.38 7.26 1.55.63 3.37 1.64 5.08 1.52 3.1-1.25 5.75-3.55 8.75-5.06a101.93 101.93 0 0 1 28.23-9.73c11.45-2.02 23.37-2.95 34.55.95Z" fill="#fff"/></g><g transform="translate(-279 -322)"></g></g></svg>