<svg width="24" height="24" viewBox="0 0 24 24" fill="none" xmlns="http://www.w3.org/2000/svg">
<path fill-rule="evenodd" clip-rule="evenodd" d="M4.56517 3.00012C3.70108 3.00012 3 3.71299 3 4.59052V5.52656C3 6.17659 3.24719 6.8017 3.68936 7.27189L8.5351 12.4244L8.53723 12.4212C9.47271 13.3789 9.99905 14.6735 9.99905 16.0234V20.5953C9.99905 20.9008 10.3187 21.0958 10.584 20.9517L13.3436 19.448C13.7602 19.2205 14.0201 18.7785 14.0201 18.2985V16.0115C14.0201 14.6692 14.539 13.38 15.466 12.4244L20.3117 7.27189C20.7528 6.8017 21 6.17659 21 5.52656V4.59052C21 3.71299 20.3 3.00012 19.4359 3.00012H4.56517Z" stroke="#e6e7e7" stroke-width="1.5" stroke-linecap="round" stroke-linejoin="round"/>
</svg>
