<svg width="24" height="24" viewBox="0 0 24 24" fill="none" xmlns="http://www.w3.org/2000/svg">
<path d="M8.84819 12.3141V16.0591" stroke="#e6e7e7" stroke-width="1.5" stroke-linecap="round" stroke-linejoin="round"/>
<path d="M10.7591 14.1868H6.93799" stroke="#e6e7e7" stroke-width="1.5" stroke-linecap="round" stroke-linejoin="round"/>
<path d="M15.3661 12.4281H15.259" stroke="#e6e7e7" stroke-width="1.5" stroke-linecap="round" stroke-linejoin="round"/>
<path d="M17.1795 16.0027H17.0725" stroke="#e6e7e7" stroke-width="1.5" stroke-linecap="round" stroke-linejoin="round"/>
<path d="M8.07227 2.00012C8.07227 2.7406 8.68475 3.34088 9.44029 3.34088H10.4968C11.6624 3.34504 12.6065 4.27038 12.6118 5.41278V6.08784" stroke="#e6e7e7" stroke-width="1.5" stroke-linecap="round" stroke-linejoin="round"/>
<path fill-rule="evenodd" clip-rule="evenodd" d="M16.4283 21.9627C13.4231 22.0136 10.473 22.0115 7.57275 21.9627C4.3535 21.9627 2 19.6665 2 16.5114V11.8618C2 8.70673 4.3535 6.4105 7.57275 6.4105C10.4889 6.36065 13.4411 6.36169 16.4283 6.4105C19.6476 6.4105 22 8.70777 22 11.8618V16.5114C22 19.6665 19.6476 21.9627 16.4283 21.9627Z" stroke="#e6e7e7" stroke-width="1.5" stroke-linecap="round" stroke-linejoin="round"/>
</svg>
