<svg width="24" height="24" viewBox="0 0 24 24" fill="none" xmlns="http://www.w3.org/2000/svg">
<path d="M9.76057 14.3669C9.18557 13.7929 8.83557 13.0129 8.83557 12.1379C8.83557 10.3849 10.2476 8.97192 11.9996 8.97192C12.8666 8.97192 13.6646 9.32292 14.2296 9.89692" stroke="#e6e7e7" stroke-width="1.5" stroke-linecap="round" stroke-linejoin="round"/>
<path d="M15.1047 12.699C14.8727 13.989 13.8567 15.007 12.5677 15.241" stroke="#e6e7e7" stroke-width="1.5" stroke-linecap="round" stroke-linejoin="round"/>
<path d="M6.65451 17.4724C5.06751 16.2264 3.72351 14.4064 2.74951 12.1374C3.73351 9.85841 5.08651 8.02841 6.68351 6.77241C8.27051 5.51641 10.1015 4.83441 11.9995 4.83441C13.9085 4.83441 15.7385 5.52641 17.3355 6.79141" stroke="#e6e7e7" stroke-width="1.5" stroke-linecap="round" stroke-linejoin="round"/>
<path d="M19.4475 8.99091C20.1355 9.90491 20.7405 10.9599 21.2495 12.1369C19.2825 16.6939 15.8065 19.4389 11.9995 19.4389C11.1365 19.4389 10.2855 19.2989 9.46753 19.0259" stroke="#e6e7e7" stroke-width="1.5" stroke-linecap="round" stroke-linejoin="round"/>
<path d="M19.8868 4.24969L4.11279 20.0237" stroke="#e6e7e7" stroke-width="1.5" stroke-linecap="round" stroke-linejoin="round"/>
</svg>
