<svg width="24" height="24" viewBox="0 0 24 24" fill="none" xmlns="http://www.w3.org/2000/svg">
<path fill-rule="evenodd" clip-rule="evenodd" d="M21.21 7.89931V16.0503C21.21 19.0703 19.32 21.2003 16.3 21.2003H7.65C4.63 21.2003 2.75 19.0703 2.75 16.0503V7.89931C2.75 4.87931 4.64 2.75031 7.65 2.75031H16.3C19.32 2.75031 21.21 4.87931 21.21 7.89931Z" stroke="#e6e7e7" stroke-width="1.5" stroke-linecap="round" stroke-linejoin="round"/>
<path d="M5.28125 16.431L6.80925 14.818C7.34025 14.255 8.22525 14.228 8.78925 14.758C8.80625 14.775 9.72625 15.71 9.72625 15.71C10.2813 16.275 11.1883 16.284 11.7533 15.73C11.7903 15.694 14.0872 12.908 14.0872 12.908C14.6792 12.189 15.7422 12.086 16.4622 12.679C16.5102 12.719 18.6803 14.946 18.6803 14.946" stroke="#e6e7e7" stroke-width="1.5" stroke-linecap="round" stroke-linejoin="round"/>
<path fill-rule="evenodd" clip-rule="evenodd" d="M10.3126 9.13321C10.3126 10.1022 9.52757 10.8872 8.55857 10.8872C7.58957 10.8872 6.80457 10.1022 6.80457 9.13321C6.80457 8.16421 7.58957 7.37921 8.55857 7.37921C9.52757 7.38021 10.3126 8.16421 10.3126 9.13321Z" stroke="#e6e7e7" stroke-width="1.5" stroke-linecap="round" stroke-linejoin="round"/>
</svg>
