<svg width="24" height="24" viewBox="0 0 24 24" fill="none" xmlns="http://www.w3.org/2000/svg">
<path fill-rule="evenodd" clip-rule="evenodd" d="M17.8572 20.4172C19.7302 20.4172 21.2492 18.8992 21.2502 17.0262V17.0242V14.3242C20.0132 14.3242 19.0112 13.3222 19.0102 12.0852C19.0102 10.8492 20.0122 9.84621 21.2492 9.84621H21.2502V7.14621C21.2522 5.27221 19.7352 3.75221 17.8622 3.75021H17.8562H6.14424C4.27024 3.75021 2.75124 5.26821 2.75024 7.14221V7.14321V9.93321C3.94424 9.89121 4.94524 10.8252 4.98724 12.0192C4.98824 12.0412 4.98924 12.0632 4.98924 12.0852C4.99024 13.3202 3.99124 14.3222 2.75624 14.3242H2.75024V17.0242C2.74924 18.8972 4.26824 20.4172 6.14124 20.4172H6.14224H17.8572Z" stroke="#e6e7e7" stroke-width="1.5" stroke-linecap="round" stroke-linejoin="round"/>
<path fill-rule="evenodd" clip-rule="evenodd" d="M12.3713 9.06321L12.9873 10.3102C13.0473 10.4322 13.1633 10.5172 13.2983 10.5372L14.6753 10.7382C15.0163 10.7882 15.1513 11.2062 14.9053 11.4452L13.9093 12.4152C13.8113 12.5102 13.7673 12.6472 13.7893 12.7822L14.0243 14.1522C14.0823 14.4912 13.7273 14.7492 13.4233 14.5892L12.1923 13.9422C12.0713 13.8782 11.9273 13.8782 11.8063 13.9422L10.5763 14.5892C10.2713 14.7492 9.91634 14.4912 9.97434 14.1522L10.2093 12.7822C10.2323 12.6472 10.1873 12.5102 10.0893 12.4152L9.09434 11.4452C8.84834 11.2062 8.98334 10.7882 9.32334 10.7382L10.7003 10.5372C10.8353 10.5172 10.9523 10.4322 11.0123 10.3102L11.6273 9.06321C11.7793 8.75521 12.2193 8.75521 12.3713 9.06321Z" stroke="#e6e7e7" stroke-width="1.5" stroke-linecap="round" stroke-linejoin="round"/>
</svg>
