<svg width="24" height="24" viewBox="0 0 24 24" fill="none" xmlns="http://www.w3.org/2000/svg">
<path fill-rule="evenodd" clip-rule="evenodd" d="M16.2969 15.5384C16.3778 17.3705 14.8992 18.9197 12.9946 18.9976C12.8543 19.0035 6.01531 18.9897 6.01531 18.9897C4.11996 19.1336 2.46115 17.7716 2.31165 15.9464C2.30039 15.8104 2.30346 8.47231 2.30346 8.47231C2.21949 6.63828 3.69604 5.08511 5.60163 5.0043C5.74396 4.9974 12.5738 5.01021 12.5738 5.01021C14.4783 4.8683 16.1423 6.24013 16.2897 8.07417C16.3 8.20623 16.2969 15.5384 16.2969 15.5384Z" stroke="#e6e7e7" stroke-width="1.5" stroke-linecap="round" stroke-linejoin="round"/>
<path d="M16.3 9.97996L19.593 7.28496C20.409 6.61696 21.633 7.19896 21.632 8.25196L21.62 15.601C21.619 16.654 20.394 17.231 19.58 16.563L16.3 13.868" stroke="#e6e7e7" stroke-width="1.5" stroke-linecap="round" stroke-linejoin="round"/>
</svg>
