<svg width="24" height="24" viewBox="0 0 24 24" fill="none" xmlns="http://www.w3.org/2000/svg">
<path fill-rule="evenodd" clip-rule="evenodd" d="M4.00185 12.0003C3.99906 13.2299 3.94419 14.9071 4.70494 15.534C5.41453 16.1188 5.91395 15.9682 7.20945 16.0632C8.50587 16.1592 11.242 19.9701 13.3512 18.7647C14.4393 17.909 14.5202 16.1152 14.5202 12.0003C14.5202 7.88528 14.4393 6.09147 13.3512 5.23583C11.242 4.0295 8.50587 7.84133 7.20945 7.9373C5.91395 8.03237 5.41453 7.88169 4.70494 8.46647C3.94419 9.0934 3.99906 10.7706 4.00185 12.0003Z" stroke="#e6e7e7" stroke-width="1.5" stroke-linecap="round" stroke-linejoin="round"/>
<path d="M18.5813 8.31451C19.8926 10.6052 19.8926 13.4026 18.5813 15.6861" stroke="#e6e7e7" stroke-width="1.5" stroke-linecap="round" stroke-linejoin="round"/>
</svg>
