<svg width="165" height="303" viewBox="0 0 165 303" fill="none" xmlns="http://www.w3.org/2000/svg">
<path d="M114.58 178.86L137.91 188.12L35.1699 302.09L73.6299 220.18H41.8899L104.96 118.12H68.4999L158.71 0.910156L114.89 91.3702H150.92L114.58 178.86Z" fill="#D64B3A"/>
<path d="M57.4998 146.78L72.5598 104.85C73.4998 102.22 75.2198 100.04 77.4198 98.3404C80.0098 96.3304 83.1098 95.4004 86.3698 95.4004H114.4L71.9998 201.17H42.8998L0.509766 95.4004H28.3998C31.5498 95.4004 34.5998 96.1704 37.1898 98.0204C39.5798 99.7304 41.3298 102.06 42.3398 104.82L57.4998 146.78Z" fill="#D64B3A"/>
<path d="M123.33 153.28C123.93 153.79 124.7 154.21 125.38 154.52C127.16 155.34 129.03 155.99 130.9 156.55C133.52 157.33 136.12 158.19 138.7 159.09C141.53 160.09 144.3 161.27 147 162.61C150.11 164.15 152.93 166.15 155.4 168.6C158.06 171.22 160.08 174.32 161.56 177.73C163.29 181.72 163.92 186.08 163.92 190.39C163.92 195.39 163.06 200.28 161.21 204.93C159.39 209.51 156.72 213.57 153.21 217.03C149.56 220.63 145.2 223.26 140.43 225.1C135.17 227.12 129.56 227.94 123.94 227.94C120.55 227.94 117.18 227.59 113.86 226.93C110.53 226.27 107.26 225.32 104.1 224.09C101.02 222.9 98.0296 221.47 95.1996 219.76C92.4096 218.08 89.7896 216.1 87.4896 213.79L83.3096 209.61L92.6696 194.83C93.8196 192.96 95.4096 191.49 97.3296 190.43C99.2496 189.37 101.38 188.83 103.57 188.83C106.33 188.83 108.94 189.68 111.26 191.13C112.653 191.99 114.053 192.84 115.46 193.68C116.83 194.5 118.32 195.17 119.81 195.74C121.27 196.3 123.01 196.45 124.56 196.45C125.77 196.45 127.9 196.31 128.91 195.51C129.22 195.25 129.3 193.6 129.3 193.27C129.3 193.16 129.3 192.97 129.27 192.83C128.72 192.24 127.98 191.8 127.26 191.47C125.55 190.68 123.73 190.07 121.91 189.57C119.32 188.86 116.75 188.08 114.2 187.26C111.3 186.34 108.48 185.2 105.76 183.86C102.59 182.3 99.7496 180.23 97.2796 177.71C94.5696 174.94 92.5496 171.64 91.1096 168.06C89.3996 163.82 88.8196 159.15 88.8196 154.6C88.8196 150.15 89.7396 145.83 91.4696 141.73C93.2596 137.49 95.8996 133.76 99.2296 130.58C102.75 127.23 106.92 124.73 111.44 122.95C116.53 120.96 121.98 120.18 127.44 120.18C130.57 120.18 133.71 120.41 136.8 120.92C139.8 121.42 142.75 122.16 145.61 123.19C148.32 124.17 150.96 125.36 153.46 126.8C155.92 128.22 158.21 129.89 160.3 131.81L164.49 135.68L156.43 150.74L156.3 150.96C155.27 152.61 154.01 154.11 152.43 155.26C150.38 156.75 147.94 157.42 145.43 157.42C143.07 157.42 140.86 156.72 138.8 155.6C137.58 154.92 136.34 154.27 135.11 153.61C133.94 152.98 132.7 152.48 131.45 152.06C130.27 151.66 128.92 151.55 127.68 151.55C126.86 151.55 124.38 151.66 123.7 152.25C123.4 152.51 123.34 152.87 123.33 153.28Z" fill="#D64B3A"/>
<path d="M150.05 147.04C149.42 148.04 148.78 148.79 148.09 149.29C147.4 149.79 146.51 150.04 145.43 150.04C144.47 150.04 143.45 149.73 142.34 149.13C141.24 148.52 139.99 147.85 138.6 147.11C137.2 146.36 135.6 145.67 133.81 145.06C132.02 144.46 129.98 144.17 127.69 144.17C123.73 144.17 120.79 145 118.86 146.69C116.92 148.38 115.94 150.67 115.94 153.54C115.94 155.373 116.523 156.893 117.69 158.1C118.86 159.31 120.4 160.35 122.29 161.22C124.19 162.1 126.35 162.89 128.79 163.62C131.23 164.35 133.7 165.16 136.24 166.05C138.78 166.95 141.28 168.01 143.72 169.22C146.153 170.426 148.316 171.966 150.21 173.84C152.11 175.71 153.63 177.98 154.8 180.67C155.96 183.36 156.54 186.61 156.54 190.39C156.546 194.596 155.82 198.533 154.36 202.2C152.9 205.87 150.8 209.05 148.03 211.78C145.256 214.506 141.84 216.65 137.78 218.21C133.72 219.78 129.1 220.57 123.94 220.57C121.11 220.57 118.23 220.28 115.3 219.69C112.36 219.11 109.51 218.27 106.76 217.21C104.01 216.15 101.43 214.9 99.0097 213.45C96.5964 211.99 94.493 210.363 92.6997 208.57L98.9497 198.7C99.4097 197.953 100.056 197.35 100.89 196.89C101.723 196.43 102.616 196.2 103.57 196.2C104.82 196.2 106.09 196.6 107.36 197.39C108.633 198.183 110.07 199.056 111.67 200.01C113.28 200.97 115.11 201.85 117.19 202.64C119.27 203.426 121.726 203.823 124.56 203.83C128.39 203.83 131.37 202.97 133.49 201.29C135.62 199.6 136.68 196.93 136.68 193.27C136.68 191.143 136.096 189.413 134.93 188.08C133.77 186.75 132.24 185.65 130.35 184.77C128.45 183.9 126.29 183.13 123.87 182.46C121.46 181.8 118.98 181.05 116.44 180.23C113.9 179.423 111.423 178.423 109.01 177.23C106.59 176.05 104.45 174.49 102.55 172.55C100.66 170.61 99.1197 168.2 97.9497 165.3C96.7897 162.41 96.1997 158.85 96.1997 154.6C96.1997 151.186 96.8864 147.856 98.2597 144.61C99.6397 141.356 101.66 138.46 104.32 135.92C106.99 133.38 110.26 131.34 114.13 129.82C118 128.3 122.44 127.55 127.44 127.55C130.23 127.55 132.95 127.76 135.6 128.2C138.24 128.64 140.74 129.28 143.11 130.14C145.49 130.99 147.72 132.01 149.78 133.2C151.84 134.38 153.67 135.74 155.3 137.24L150.05 147.04Z" fill="#E6E7E7"/>
<path d="M11.4097 102.78H28.3997C30.233 102.78 31.733 103.197 32.8997 104.03C34.0663 104.857 34.8997 105.96 35.3997 107.34L53.0197 156.06C53.8097 158.18 54.6197 160.49 55.4297 162.99C56.2397 165.49 56.9897 168.12 57.6997 170.86C58.2797 168.12 58.9697 165.49 59.7397 162.99C60.5097 160.49 61.2597 158.18 62.0097 156.06L79.4997 107.34C79.9197 106.17 80.7297 105.11 81.9397 104.17C83.1497 103.23 84.6197 102.78 86.3697 102.78H103.49L67.0097 193.79H47.8897L11.4097 102.78Z" fill="#E6E7E7"/>
</svg>
