<svg xmlns="http://www.w3.org/2000/svg" viewBox="0 0 400 400" fill="none" shape-rendering="auto"><metadata xmlns:rdf="http://www.w3.org/1999/02/22-rdf-syntax-ns#" xmlns:xsi="http://www.w3.org/2001/XMLSchema-instance" xmlns:dc="http://purl.org/dc/elements/1.1/" xmlns:dcterms="http://purl.org/dc/terms/"><rdf:RDF><rdf:Description><dc:title>Adventurer Neutral</dc:title><dc:creator>Lisa Wischofsky</dc:creator><dc:source xsi:type="dcterms:URI">https://www.figma.com/community/file/1184595184137881796</dc:source><dcterms:license xsi:type="dcterms:URI">https://creativecommons.org/licenses/by/4.0/</dcterms:license><dc:rights>Remix of „Adventurer Neutral” (https://www.figma.com/community/file/1184595184137881796) by „Lisa Wischofsky”, licensed under „CC BY 4.0” (https://creativecommons.org/licenses/by/4.0/)</dc:rights></rdf:Description></rdf:RDF></metadata><mask id="viewboxMask"><rect width="400" height="400" rx="0" ry="0" x="0" y="0" fill="#fff" /></mask><g mask="url(#viewboxMask)"><rect fill="#ecad80" width="400" height="400" x="0" y="0" /><g transform="translate(-279 -322)"><path d="M589.31 432.68c12.94 7.4 23.4 19.43 28.46 33.5 5.72 14.35 5.72 30.61.54 45.12-1.04 2.9-2.88 5.22-6.28 4.77-15.08-.73-29.98.14-45.06.56-10.03 1.1-20.04 2.15-30 3.79-10.45 1.82-20.62 4.13-30.98 6.08-4.32-.12-5.27-4.23-7.16-7.33-12.06-22.95-8.72-52.48 8.27-72.08 9.79-11.52 23.84-19.77 38.83-22.06a65.12 65.12 0 0 1 43.38 7.65Z" fill="#000"/><path d="M558 429.86c14.45 0 28.8 6.03 39.38 15.78a60.1 60.1 0 0 1 18.5 35.34c1.21 10 .36 20.16-3.44 29.56l-3.28-.37c1.67-5.12 2.73-10.04 1.39-15.4-1.92-10.81-10.74-19.63-21.59-21.4-5.35-.62-10.64-.41-15.57 1.95a26.64 26.64 0 0 0-15.32 19.72c-1.1 5.72-.02 11.42 2.43 16.64a286.92 286.92 0 0 0-34 5.18c-6.73 1.22-13.35 3.24-20.15 4.12-7.35-12.03-10.84-27.07-8.3-41.03a59.67 59.67 0 0 1 18.97-34.92c11.08-9.99 26.04-15.66 40.98-15.17Z" fill="#fff"/><path d="M392.02 447.07a54.82 54.82 0 0 1 33.45 15.5c9.47 9.26 15.55 22.16 16.25 35.43.8 10.74-1.6 21.5-6.91 30.87-1.13 1.88-2.87 4.02-5 4.71-3.03.8-6.6-.16-9.61-.83a304.26 304.26 0 0 0-26.28-5.18c-12.88-.84-26.08-.9-38.96.07-4.8.32-9.78 1.33-14.56 1-2.32-1.1-3.7-4.21-4.57-6.48-3.37-8.83-4.98-18.73-3.32-28.12a54.87 54.87 0 0 1 59.5-46.97Z" fill="#000"/><path d="M401.48 454.74a49.3 49.3 0 0 1 29.58 25.18c4.64 9.38 6.55 20.52 4.31 30.82-1.3 6.2-3.31 12.86-7.13 18l-4.14-.7c4.13-4.48 6.9-9.84 6.82-16.07.38-10.5-7.04-19.98-17.18-22.44-10.75-2.93-22.53 3.32-26.5 13.64-2.56 5.93-1.93 12.1.32 17.99-7.6.3-15.02-.37-22.59.38-7.31.65-14.63 1.12-21.93 1.8-.66-1.14-1.33-2.25-1.9-3.45-7.24-17.69-2.92-38.73 10.39-52.36 12.64-13.18 32.51-18.39 49.95-12.79Z" fill="#fff"/></g><g transform="translate(-279 -322)"><path d="M545.03 378.5c24.7.94 48.04 8.97 69.45 21 2.26 1.31 4.92 2.48 6.79 4.32 1.3 2.39-.38 5.13-3.2 4.19-16.58-6.2-33.56-9.63-51.06-12.02-20.3-2.34-39.92-3.68-60.2-.13-3.2.44-6.87 2.16-10.08 1.59-2.66-1.69-1.2-6.1 1.29-7.37 13.63-9.33 30.79-12.1 47-11.58ZM407.99 396.92c3.5.64 6.6 1.92 9.63 3.78-.15 1.2-.26 2.4-.33 3.62-2.7.74-5.46 1.12-8.24 1.34-13.17 1.15-26.45 5.1-38.81 9.69-12.23 4.75-24.78 10.64-35.19 18.7-2.82 2.04-4.13 4.83-8.08 4.48-.5-.9-1-1.79-1.51-2.67.9-1.6 1.68-3.17 2.76-4.64 9.55-13.17 23.64-23.22 38.6-29.35 12.7-5.15 27.62-8.05 41.17-4.95Z" fill="#000"/></g><g transform="translate(-279 -322)"><path d="M469.99 539.64c9.45-.62 18.37 5.2 25.18 11.18 9.6 8.8 17.31 20.09 23.54 31.49a209.12 209.12 0 0 1 23.56 76.68c.5 4.4 1.53 8.68-2.43 11.86-7.32 3.5-15.84 4.95-23.84 6-15.97 1.39-32.52-.84-48-4.84-2.35-.75-4.52-.89-5.43-3.57a210.22 210.22 0 0 1-17.97-65.91c-1.01-12.34-1.07-24.9 1.8-37.02 1.62-6.56 4.25-13.27 8.72-18.42 3.72-4.3 9.1-7.4 14.87-7.45Z" fill="#000"/><path d="M474.49 545.63c9.4 2.08 17.07 9.35 23.35 16.25-13.95 5.98-30.9 9.6-45.86 5.81 1.27-6.17 3.77-12.91 8.25-17.5 3.6-3.78 9.07-5.9 14.26-4.56Z" fill="#fff"/><path d="M501.86 566.88c12.64 16.83 21.52 36.66 27.44 56.79-6.29 1.3-11.94 3.96-17.5 7.1-11.57 6.75-22.43 15.88-30.04 26.97-2.28 3.53-4.69 6.5-4.54 10.94a170.9 170.9 0 0 0-8.96-2.06c-8.42-17.85-13.97-37.13-16.92-56.63-1.6-12.46-2.48-24.55-.38-37.02 5.4 1.04 10.5 2.3 16.05 1.94 5-.39 10.05-.95 15-1.89 6.89-1.27 13.25-3.89 19.85-6.14Z" fill="#8F2E45"/><path d="M527.55 629.64c1.5-.65 2.4.12 3.76.63 2.74 11.73 5.07 23.5 5.63 35.56-7.95 3.25-16.2 4.63-24.68 5.56-10.48.94-20.25-.66-30.6-1.8a74.98 74.98 0 0 1 17.9-23c8.13-7.1 17.68-13.57 27.99-16.95Z" fill="#EA869E"/></g><g transform="translate(-279 -322)"></g></g></svg>