<svg width="35" height="27" viewBox="0 0 35 27" fill="none" xmlns="http://www.w3.org/2000/svg">
<path d="M30.4655 11.5684C30.1906 11.3553 29.8567 11.2182 29.5019 11.1729C29.1471 11.1275 28.7858 11.1756 28.4591 11.3118L22.3798 13.8219L18.8476 7.90917C18.6788 7.63312 18.4342 7.40355 18.1387 7.24385C17.8433 7.08414 17.5075 7 17.1656 7C16.8237 7 16.488 7.08414 16.1925 7.24385C15.897 7.40355 15.6524 7.63312 15.4836 7.90917L11.9514 13.8219L5.87214 11.3118C5.54476 11.1758 5.18295 11.1276 4.8276 11.1726C4.47226 11.2176 4.13755 11.354 3.86133 11.5664C3.5851 11.7788 3.37837 12.0587 3.2645 12.3745C3.15064 12.6903 3.13417 13.0294 3.21698 13.3534L6.26862 25.4355C6.32697 25.6694 6.43585 25.8899 6.58868 26.0836C6.7415 26.2773 6.93507 26.4401 7.15768 26.5623C7.45905 26.7298 7.80363 26.8184 8.15487 26.8189C8.32561 26.8186 8.49546 26.796 8.65947 26.7519C14.2219 25.3239 20.0973 25.3239 25.6597 26.7519C26.1676 26.8759 26.7077 26.8077 27.1615 26.5623C27.3855 26.4417 27.5801 26.2793 27.7331 26.0853C27.8862 25.8914 27.9942 25.6701 28.0506 25.4355L31.1142 13.3534C31.1961 13.0293 31.1787 12.6904 31.0641 12.3749C30.9495 12.0595 30.7421 11.7801 30.4655 11.5684Z" fill="#FFAA00"/>
<circle cx="17.165" cy="4" r="4" fill="#FFAA00"/>
<circle cx="17.165" cy="18" r="3" fill="#BE9502"/>
<circle cx="31.665" cy="10.5" r="2.5" fill="#FFAA00"/>
<circle cx="2.66504" cy="10.5" r="2.5" fill="#FFAA00"/>
<circle cx="9.66504" cy="19.5" r="1.5" fill="#BE9502"/>
<circle cx="24.665" cy="19.5" r="1.5" fill="#BE9502"/>
</svg>
