<svg width="24" height="24" viewBox="0 0 24 24" fill="none" xmlns="http://www.w3.org/2000/svg">
<path fill-rule="evenodd" clip-rule="evenodd" d="M17.1799 4.41012C17.1799 3.08012 18.2599 2.00012 19.5899 2.00012C20.9199 2.00012 21.9999 3.08012 21.9999 4.41012C21.9999 5.74012 20.9199 6.82012 19.5899 6.82012C18.2599 6.82012 17.1799 5.74012 17.1799 4.41012ZM13.3298 14.7594L16.2198 11.0304L16.1798 11.0504C16.3398 10.8304 16.3698 10.5504 16.2598 10.3004C16.1508 10.0504 15.9098 9.88042 15.6508 9.86042C15.3798 9.83042 15.1108 9.95042 14.9498 10.1704L12.5308 13.3004L9.75976 11.1204C9.58976 10.9904 9.38976 10.9394 9.18976 10.9604C8.99076 10.9904 8.81076 11.0994 8.68976 11.2594L5.73076 15.1104L5.66976 15.2004C5.49976 15.5194 5.57976 15.9294 5.87976 16.1504C6.01976 16.2404 6.16976 16.3004 6.33976 16.3004C6.57076 16.3104 6.78976 16.1894 6.92976 16.0004L9.43976 12.7694L12.2898 14.9104L12.3798 14.9694C12.6998 15.1394 13.0998 15.0604 13.3298 14.7594ZM15.4498 3.78042C15.4098 4.03042 15.3898 4.28042 15.3898 4.53042C15.3898 6.78042 17.2098 8.59942 19.4498 8.59942C19.6998 8.59942 19.9398 8.57042 20.1898 8.53042V16.5994C20.1898 19.9904 18.1898 22.0004 14.7898 22.0004H7.40076C3.99976 22.0004 1.99976 19.9904 1.99976 16.5994V9.20042C1.99976 5.80042 3.99976 3.78042 7.40076 3.78042H15.4498Z" fill="#e6e7e7"/>
</svg>
