<svg width="24" height="24" viewBox="0 0 24 24" fill="none" xmlns="http://www.w3.org/2000/svg">
<path fill-rule="evenodd" clip-rule="evenodd" d="M9.5 12.5538C12.2546 12.5538 14.4626 10.3172 14.4626 7.52696C14.4626 4.73675 12.2546 2.50012 9.5 2.50012C6.74543 2.50012 4.53737 4.73675 4.53737 7.52696C4.53737 10.3172 6.74543 12.5538 9.5 12.5538ZM9.5 15.0153C5.45422 15.0153 2 15.6622 2 18.2466C2 20.8299 5.4332 21.5001 9.5 21.5001C13.5448 21.5001 17 20.8533 17 18.2689C17 15.6845 13.5668 15.0153 9.5 15.0153ZM19.8979 9.58798H21.101C21.5962 9.58798 22 9.99743 22 10.4996C22 11.0018 21.5962 11.4112 21.101 11.4112H19.8979V12.5885C19.8979 13.0907 19.4952 13.5001 18.999 13.5001C18.5038 13.5001 18.1 13.0907 18.1 12.5885V11.4112H16.899C16.4027 11.4112 16 11.0018 16 10.4996C16 9.99743 16.4027 9.58798 16.899 9.58798H18.1V8.41174C18.1 7.90957 18.5038 7.50012 18.999 7.50012C19.4952 7.50012 19.8979 7.90957 19.8979 8.41174V9.58798Z" fill="#e6e7e7"/>
</svg>
