<svg width="24" height="24" viewBox="0 0 24 24" fill="none" xmlns="http://www.w3.org/2000/svg">
<path d="M11.8585 17.4102C12.0925 17.284 12.2384 17.0439 12.2384 16.7829V12.7174H20.2657C20.671 12.7174 21 12.3961 21 12.0001C21 11.6042 20.671 11.2829 20.2657 11.2829H12.2384V7.21744C12.2384 6.9554 12.0925 6.71535 11.8585 6.59007C11.6245 6.46288 11.3386 6.47148 11.1125 6.61015L3.34267 11.3929C3.12924 11.5248 3 11.7534 3 12.0001C3 12.2469 3.12924 12.4755 3.34267 12.6074L11.1125 17.3901C11.2319 17.4628 11.368 17.5001 11.5041 17.5001C11.6255 17.5001 11.7479 17.4695 11.8585 17.4102Z" fill="#e6e7e7"/>
</svg>
