<svg width="24" height="24" viewBox="0 0 24 24" fill="none" xmlns="http://www.w3.org/2000/svg">
<path fill-rule="evenodd" clip-rule="evenodd" d="M12 2.00012C17.52 2.00012 22 6.49012 22 12.0001L21.9962 12.2799C21.8478 17.6707 17.4264 22.0001 12 22.0001C6.49 22.0001 2 17.5201 2 12.0001C2 6.49012 6.49 2.00012 12 2.00012ZM8 13.9801C8.3 14.2701 8.77 14.2701 9.06 13.9701L12 11.0201L14.94 13.9701C15.23 14.2701 15.71 14.2701 16 13.9801C16.3 13.6801 16.3 13.2101 16 12.9201L12.53 9.43012C12.39 9.29012 12.2 9.21012 12 9.21012C11.8 9.21012 11.61 9.29012 11.47 9.43012L8 12.9201C7.85 13.0601 7.78 13.2501 7.78 13.4401C7.78 13.6401 7.85 13.8301 8 13.9801Z" fill="#e6e7e7"/>
</svg>
