<svg width="24" height="24" viewBox="0 0 24 24" fill="none" xmlns="http://www.w3.org/2000/svg">
<path fill-rule="evenodd" clip-rule="evenodd" d="M21.9999 7.92012V16.0901C21.9999 19.6201 19.7289 22.0001 16.3399 22.0001H7.66988C4.27988 22.0001 1.99988 19.6201 1.99988 16.0901V7.92012C1.99988 4.38012 4.27988 2.00012 7.66988 2.00012H16.3399C19.7289 2.00012 21.9999 4.38012 21.9999 7.92012ZM11.2499 9.73012V16.0801C11.2499 16.5001 11.5899 16.8301 11.9999 16.8301C12.4199 16.8301 12.7499 16.5001 12.7499 16.0801V9.73012L15.2199 12.2101C15.3599 12.3501 15.5599 12.4301 15.7499 12.4301C15.9389 12.4301 16.1299 12.3501 16.2799 12.2101C16.5699 11.9201 16.5699 11.4401 16.2799 11.1501L12.5299 7.38012C12.2499 7.10012 11.7499 7.10012 11.4699 7.38012L7.71988 11.1501C7.42988 11.4401 7.42988 11.9201 7.71988 12.2101C8.01988 12.5001 8.48988 12.5001 8.78988 12.2101L11.2499 9.73012Z" fill="#e6e7e7"/>
</svg>
