<svg width="24" height="24" viewBox="0 0 24 24" fill="none" xmlns="http://www.w3.org/2000/svg">
<path fill-rule="evenodd" clip-rule="evenodd" d="M2 12.0001C2 6.48012 6.49 2.00012 12 2.00012L12.2798 2.00397C17.6706 2.15229 22 6.57368 22 12.0001C22 17.5101 17.52 22.0001 12 22.0001C6.49 22.0001 2 17.5101 2 12.0001ZM13.98 16.0001C14.27 15.7001 14.27 15.2301 13.97 14.9401L11.02 12.0001L13.97 9.06012C14.27 8.77012 14.27 8.29012 13.98 8.00012C13.68 7.70012 13.21 7.70012 12.92 8.00012L9.43 11.4701C9.29 11.6101 9.21 11.8001 9.21 12.0001C9.21 12.2001 9.29 12.3901 9.43 12.5301L12.92 16.0001C13.06 16.1501 13.25 16.2201 13.44 16.2201C13.64 16.2201 13.83 16.1501 13.98 16.0001Z" fill="#e6e7e7"/>
</svg>
