<svg width="24" height="24" viewBox="0 0 24 24" fill="none" xmlns="http://www.w3.org/2000/svg">
<path fill-rule="evenodd" clip-rule="evenodd" d="M12.0066 13.1651L12.3607 13.1636C13.7652 13.1514 15.0183 13.0667 15.8124 12.9207C15.8267 12.9207 16.6143 12.7615 16.8764 12.66C17.2554 12.5007 17.577 12.2127 17.7808 11.8517C17.9262 11.5626 18 11.2593 18 10.9418C17.9884 10.6923 17.8629 10.2808 17.7576 9.98704L17.664 9.74295C17.0218 8.12624 14.9234 5.03573 13.6402 3.85211L13.5505 3.76485L13.1302 3.37539C12.8085 3.12994 12.4153 3.00012 11.9923 3.00012C11.6134 3.00012 11.2344 3.11576 10.9282 3.34703C10.829 3.41626 10.7017 3.52779 10.5942 3.62705L10.1974 4.00612C8.87572 5.31058 7.02183 8.13497 6.40756 9.59895C6.39435 9.59895 6.01432 10.5088 6 10.9418V10.9997C6 11.664 6.37892 12.2847 6.99137 12.6022C7.1588 12.6889 7.48678 12.7721 7.77483 12.8354L8.31871 12.9491C9.19332 13.0789 10.535 13.1651 12.0066 13.1651ZM10.4817 19.4969C10.4817 20.327 11.1613 21.0001 11.9996 21.0001C12.8378 21.0001 13.5175 20.327 13.5175 19.4969L13.1903 15.7976C13.1903 15.1464 12.6583 14.6184 11.9996 14.6184C11.3419 14.6184 10.8088 15.1464 10.8088 15.7976L10.4817 19.4969Z" fill="#e6e7e7"/>
</svg>
