<svg width="24" height="24" viewBox="0 0 24 24" fill="none" xmlns="http://www.w3.org/2000/svg">
<path d="M17.4101 12.1416C17.2839 11.9076 17.0438 11.7617 16.7827 11.7617H12.7173V3.73442C12.7173 3.32909 12.396 3.00012 12 3.00012C11.6041 3.00012 11.2828 3.32909 11.2828 3.73442V11.7617H7.21731C6.95527 11.7617 6.71523 11.9076 6.58995 12.1416C6.46275 12.3756 6.47136 12.6615 6.61003 12.8876L11.3927 20.6575C11.5247 20.8709 11.7533 21.0001 12 21.0001C12.2468 21.0001 12.4753 20.8709 12.6073 20.6575L17.39 12.8876C17.4627 12.7682 17.5 12.6321 17.5 12.496C17.5 12.3746 17.4694 12.2522 17.4101 12.1416Z" fill="#e6e7e7"/>
</svg>
