<svg width="24" height="24" viewBox="0 0 24 24" fill="none" xmlns="http://www.w3.org/2000/svg">
<path d="M6.5899 11.8586C6.71614 12.0926 6.95618 12.2385 7.21726 12.2385H11.2827V20.2658C11.2827 20.6712 11.604 21.0001 12 21.0001C12.3959 21.0001 12.7172 20.6712 12.7172 20.2658V12.2385H16.7827C17.0447 12.2385 17.2848 12.0926 17.4101 11.8586C17.5372 11.6247 17.5286 11.3388 17.39 11.1126L12.6073 3.34279C12.4753 3.12936 12.2467 3.00012 12 3.00012C11.7532 3.00012 11.5247 3.12936 11.3927 3.34279L6.60998 11.1126C6.5373 11.232 6.5 11.3681 6.5 11.5042C6.5 11.6256 6.5306 11.748 6.5899 11.8586Z" fill="#e6e7e7"/>
</svg>
