<svg width="24" height="24" viewBox="0 0 24 24" fill="none" xmlns="http://www.w3.org/2000/svg">
<path fill-rule="evenodd" clip-rule="evenodd" d="M22.0001 12.0001C22.0001 17.5201 17.5101 22.0001 12.0001 22.0001L11.7204 21.9963C6.32954 21.848 2.00012 17.4266 2.00012 12.0001C2.00012 6.49012 6.48012 2.00012 12.0001 2.00012C17.5101 2.00012 22.0001 6.49012 22.0001 12.0001ZM10.0201 8.00012C9.73012 8.30012 9.73012 8.77012 10.0301 9.06012L12.9801 12.0001L10.0301 14.9401C9.73012 15.2301 9.73012 15.7101 10.0201 16.0001C10.3201 16.3001 10.7901 16.3001 11.0801 16.0001L14.5701 12.5301C14.7101 12.3901 14.7901 12.2001 14.7901 12.0001C14.7901 11.8001 14.7101 11.6101 14.5701 11.4701L11.0801 8.00012C10.9401 7.85012 10.7501 7.78012 10.5601 7.78012C10.3601 7.78012 10.1701 7.85012 10.0201 8.00012Z" fill="#e6e7e7"/>
</svg>
