<svg width="24" height="24" viewBox="0 0 24 24" fill="none" xmlns="http://www.w3.org/2000/svg">
<path d="M12.1415 6.59002C11.9075 6.71626 11.7616 6.9563 11.7616 7.21739V11.2828H3.73429C3.32896 11.2828 3 11.6042 3 12.0001C3 12.396 3.32896 12.7174 3.73429 12.7174H11.7616V16.7828C11.7616 17.0448 11.9075 17.2849 12.1415 17.4102C12.3755 17.5374 12.6614 17.5288 12.8875 17.3901L20.6573 12.6074C20.8708 12.4754 21 12.2468 21 12.0001C21 11.7534 20.8708 11.5248 20.6573 11.3928L12.8875 6.6101C12.7681 6.53742 12.632 6.50012 12.4959 6.50012C12.3745 6.50012 12.2521 6.53073 12.1415 6.59002Z" fill="#e6e7e7"/>
</svg>
