<svg width="24" height="24" viewBox="0 0 24 24" fill="none" xmlns="http://www.w3.org/2000/svg">
<path fill-rule="evenodd" clip-rule="evenodd" d="M1.99988 16.0802V7.91024C1.99988 4.38024 4.27088 2.00024 7.65988 2.00024H16.3299C19.7199 2.00024 21.9999 4.38024 21.9999 7.91024V16.0802C21.9999 19.6202 19.7199 22.0002 16.3299 22.0002H7.65988C4.27088 22.0002 1.99988 19.6202 1.99988 16.0802ZM12.7499 14.2702V7.92024C12.7499 7.50024 12.4099 7.17024 11.9999 7.17024C11.5799 7.17024 11.2499 7.50024 11.2499 7.92024V14.2702L8.77988 11.7902C8.63988 11.6502 8.43988 11.5702 8.24988 11.5702C8.06088 11.5702 7.86988 11.6502 7.71988 11.7902C7.42988 12.0802 7.42988 12.5602 7.71988 12.8502L11.4699 16.6202C11.7499 16.9002 12.2499 16.9002 12.5299 16.6202L16.2799 12.8502C16.5699 12.5602 16.5699 12.0802 16.2799 11.7902C15.9799 11.5002 15.5099 11.5002 15.2099 11.7902L12.7499 14.2702Z" fill="#e6e7e7"/>
</svg>
