<svg width="24" height="24" viewBox="0 0 24 24" fill="none" xmlns="http://www.w3.org/2000/svg">
<path fill-rule="evenodd" clip-rule="evenodd" d="M7.91988 2.00012H16.0899C19.6199 2.00012 21.9999 4.27112 21.9999 7.66012V16.3301C21.9999 19.7201 19.6199 22.0001 16.0899 22.0001H7.91988C4.37988 22.0001 1.99988 19.7201 1.99988 16.3301V7.66012C1.99988 4.27112 4.37988 2.00012 7.91988 2.00012ZM9.72988 12.7501H16.0799C16.4999 12.7501 16.8299 12.4101 16.8299 12.0001C16.8299 11.5801 16.4999 11.2501 16.0799 11.2501H9.72988L12.2099 8.78012C12.3499 8.64012 12.4299 8.44012 12.4299 8.25012C12.4299 8.06112 12.3499 7.87012 12.2099 7.72012C11.9199 7.43012 11.4399 7.43012 11.1499 7.72012L7.37988 11.4701C7.09988 11.7501 7.09988 12.2501 7.37988 12.5301L11.1499 16.2801C11.4399 16.5701 11.9199 16.5701 12.2099 16.2801C12.4999 15.9801 12.4999 15.5101 12.2099 15.2101L9.72988 12.7501Z" fill="#e6e7e7"/>
</svg>
