<svg width="24" height="24" viewBox="0 0 24 24" fill="none" xmlns="http://www.w3.org/2000/svg">
<path fill-rule="evenodd" clip-rule="evenodd" d="M13.165 11.9935L13.1634 11.6394C13.1513 10.2349 13.0666 8.98186 12.9206 8.18775C12.9206 8.17343 12.7613 7.38584 12.6599 7.12368C12.5006 6.74475 12.2126 6.42311 11.8515 6.21933C11.5624 6.07392 11.2592 6.00012 10.9417 6.00012C10.6922 6.01169 10.2806 6.13726 9.98692 6.24254L9.74283 6.33609C8.12612 6.97828 5.03561 9.07668 3.85199 10.36L3.76473 10.4497L3.37527 10.87C3.12982 11.1916 3 11.5848 3 12.0078C3 12.3868 3.11563 12.7657 3.3469 13.0719C3.41614 13.1711 3.52766 13.2984 3.62693 13.4059L4.006 13.8027C5.31046 15.1244 8.13485 16.9783 9.59883 17.5926C9.59883 17.6058 10.5086 17.9858 10.9417 18.0001H10.9995C11.6639 18.0001 12.2846 17.6212 12.6021 17.0088C12.6888 16.8413 12.772 16.5133 12.8352 16.2253L12.949 15.6814C13.0788 14.8068 13.165 13.4651 13.165 11.9935ZM19.4967 13.5185C20.3269 13.5185 21 12.8388 21 12.0006C21 11.1623 20.3269 10.4827 19.4967 10.4827L15.7975 10.8098C15.1463 10.8098 14.6183 11.3419 14.6183 12.0006C14.6183 12.6582 15.1463 13.1913 15.7975 13.1913L19.4967 13.5185Z" fill="#e6e7e7"/>
</svg>
