<svg width="24" height="24" viewBox="0 0 24 24" fill="none" xmlns="http://www.w3.org/2000/svg">
<path d="M16.6308 13.1311C16.5743 13.1891 16.3609 13.4371 16.1622 13.6411C14.9971 14.9241 11.9576 17.0241 10.3668 17.6651C10.1252 17.7681 9.51437 17.9861 9.18802 18.0001C8.8753 18.0001 8.5772 17.9281 8.29274 17.7821C7.93814 17.5781 7.65368 17.2571 7.49781 16.8781C7.39747 16.6151 7.2416 15.8281 7.2416 15.8141C7.08573 14.9531 7 13.5541 7 12.0081C7 10.5351 7.08573 9.19312 7.21335 8.31912C7.22796 8.30512 7.38383 7.32712 7.55431 6.99212C7.86702 6.38012 8.47784 6.00012 9.13151 6.00012H9.18802C9.61374 6.01512 10.509 6.39512 10.509 6.40912C12.0141 7.05112 14.9834 9.04812 16.1768 10.3751C16.1768 10.3751 16.5129 10.7161 16.659 10.9291C16.887 11.2351 17 11.6141 17 11.9931C17 12.4161 16.8724 12.8101 16.6308 13.1311Z" fill="#e6e7e7"/>
</svg>
