<svg width="24" height="24" viewBox="0 0 24 24" fill="none" xmlns="http://www.w3.org/2000/svg">
<path fill-rule="evenodd" clip-rule="evenodd" d="M16.4184 6.47012H16.6232C19.3152 6.47012 21.5 8.72012 21.5 11.4801V17.0001C21.5 19.7601 19.3152 22.0001 16.6232 22.0001H7.3768C4.6848 22.0001 2.5 19.7601 2.5 17.0001V11.4801C2.5 8.72012 4.6848 6.47012 7.3768 6.47012H7.58162C7.60113 5.27012 8.05955 4.15012 8.8886 3.31012C9.72741 2.46012 10.8003 2.03012 12.0098 2.00012C14.4286 2.00012 16.3891 4.00012 16.4184 6.47012ZM9.91273 4.38012C9.36653 4.94012 9.06417 5.68012 9.04466 6.47012H14.9553C14.9261 4.83012 13.6191 3.50012 12.0098 3.50012C11.2587 3.50012 10.4784 3.81012 9.91273 4.38012ZM15.7064 10.3201C16.116 10.3201 16.4379 9.98012 16.4379 9.57012V8.41012C16.4379 8.00012 16.116 7.66012 15.7064 7.66012C15.3065 7.66012 14.9748 8.00012 14.9748 8.41012V9.57012C14.9748 9.98012 15.3065 10.3201 15.7064 10.3201ZM8.93737 9.57012C8.93737 9.98012 8.6155 10.3201 8.20585 10.3201C7.80595 10.3201 7.47433 9.98012 7.47433 9.57012V8.41012C7.47433 8.00012 7.80595 7.66012 8.20585 7.66012C8.6155 7.66012 8.93737 8.00012 8.93737 8.41012V9.57012Z" fill="#e6e7e7"/>
</svg>
