<svg width="24" height="24" viewBox="0 0 24 24" fill="none" xmlns="http://www.w3.org/2000/svg">
<path fill-rule="evenodd" clip-rule="evenodd" d="M16.9303 7.00012C16.9621 6.92925 16.977 6.85201 16.9739 6.77445H17C16.8882 4.10603 14.6849 2.00012 12.0049 2.00012C9.325 2.00012 7.12172 4.10603 7.00989 6.77445C6.9967 6.8491 6.9967 6.92547 7.00989 7.00012H6.93171C5.65022 7.00012 4.28034 7.84609 3.88264 10.1202L3.1049 16.3149C2.46858 20.8631 4.81062 22.0001 7.86853 22.0001H16.1585C19.2075 22.0001 21.4789 20.3537 20.9133 16.3149L20.1444 10.1202C19.676 7.90976 18.3503 7.00012 17.0865 7.00012H16.9303ZM15.4932 7.00012C15.4654 6.92807 15.4506 6.85165 15.4497 6.77445C15.4497 4.85695 13.8899 3.30251 11.9657 3.30251C10.0416 3.30251 8.48184 4.85695 8.48184 6.77445C8.49502 6.8491 8.49502 6.92547 8.48184 7.00012H15.4932ZM9.097 12.1487C8.60889 12.1487 8.21321 11.7414 8.21321 11.2391C8.21321 10.7367 8.60889 10.3294 9.097 10.3294C9.5851 10.3294 9.98079 10.7367 9.98079 11.2391C9.98079 11.7414 9.5851 12.1487 9.097 12.1487ZM14.002 11.2391C14.002 11.7414 14.3977 12.1487 14.8858 12.1487C15.3739 12.1487 15.7696 11.7414 15.7696 11.2391C15.7696 10.7367 15.3739 10.3294 14.8858 10.3294C14.3977 10.3294 14.002 10.7367 14.002 11.2391Z" fill="#e6e7e7"/>
</svg>
