<svg width="24" height="24" viewBox="0 0 24 24" fill="none" xmlns="http://www.w3.org/2000/svg">
<path fill-rule="evenodd" clip-rule="evenodd" d="M21.3749 3.8696V3.85944C21.7019 3.51386 21.7019 2.97517 21.3749 2.6296C21.2163 2.46697 20.9982 2.36432 20.7702 2.36432C20.5423 2.36432 20.3242 2.46697 20.1755 2.6296L2.21535 21.0568C2.18562 21.0873 2.16579 21.1168 2.14597 21.1483L2.11623 21.189C1.92791 21.5142 1.96756 21.9513 2.24509 22.246C2.4235 22.4086 2.63165 22.5001 2.84971 22.5001C3.06777 22.5001 3.27591 22.4086 3.44441 22.246L8.80607 16.748C16.2065 23.9876 18.6904 21.3328 19.2652 20.7185C19.3032 20.6778 19.3329 20.6461 19.3551 20.6268C22.0221 17.9052 21.2877 17.1916 19.4481 15.4044L19.4481 15.4044C19.1913 15.1548 18.9129 14.8844 18.6192 14.5846C17.5132 13.4607 16.724 13.7447 15.8469 14.0605C14.8813 14.4081 13.8092 14.7941 12.0904 13.3825L11.5626 13.9213L11.9586 13.5152L21.3749 3.8696ZM6.18525 14.2054C0.192328 7.41518 2.57581 5.06052 3.15895 4.48443C3.20162 4.44227 3.23466 4.40964 3.25406 4.38549C5.94103 1.66033 6.64023 2.40744 8.39096 4.27813C8.63969 4.5439 8.90964 4.83235 9.20953 5.13674C10.315 6.26415 10.0387 7.07043 9.73138 7.96746C9.47405 8.71848 9.19492 9.53311 9.6866 10.6531L6.18525 14.2054Z" fill="#e6e7e7"/>
</svg>
