<svg width="24" height="24" viewBox="0 0 24 24" fill="none" xmlns="http://www.w3.org/2000/svg">
<path d="M19.3372 5.91785L21.7408 3.5053C21.9083 3.3371 22.0002 3.11419 22.0002 2.8781C22.0002 2.64201 21.9083 2.4191 21.7408 2.2509C21.4066 1.91653 20.8262 1.91653 20.4921 2.2509L18.0885 4.66446L15.684 2.2509C15.3499 1.91653 14.7694 1.91653 14.4353 2.2509C14.2687 2.4191 14.1769 2.64201 14.1769 2.8781C14.1769 3.11419 14.2687 3.3371 14.4353 3.5053L16.8388 5.91785L14.4353 8.33039C14.2687 8.49859 14.1769 8.7215 14.1769 8.95759C14.1769 9.19368 14.2687 9.41659 14.4353 9.58479C14.7694 9.91916 15.3499 9.91916 15.684 9.58479L18.0885 7.17123L20.4921 9.58479C20.6596 9.75198 20.8807 9.84418 21.1169 9.84418C21.3531 9.84418 21.5742 9.75198 21.7408 9.58479C21.9083 9.41659 22.0002 9.19368 22.0002 8.95759C22.0002 8.7215 21.9083 8.49859 21.7408 8.33039L19.3372 5.91785Z" fill="#e6e7e7"/>
<path fill-rule="evenodd" clip-rule="evenodd" d="M11.0317 12.9725C15.0208 16.9605 15.9258 12.3468 18.4656 14.8849C20.9143 17.3329 22.3216 17.8233 19.2192 20.9248C18.8306 21.2371 16.3616 24.9944 7.6846 16.3198C-0.993478 7.64412 2.76158 5.17257 3.07397 4.78407C6.18387 1.67397 6.66586 3.0895 9.11449 5.53745C11.6544 8.07662 7.04266 8.98454 11.0317 12.9725Z" fill="#e6e7e7"/>
</svg>
