<svg width="24" height="24" viewBox="0 0 24 24" fill="none" xmlns="http://www.w3.org/2000/svg">
<path fill-rule="evenodd" clip-rule="evenodd" d="M7.33049 2.00055H16.6695C20.0705 2.00055 21.9905 3.92955 22.0005 7.33055V16.6705C22.0005 20.0705 20.0705 22.0005 16.6695 22.0005H7.33049C3.92949 22.0005 2.00049 20.0705 2.00049 16.6705V7.33055C2.00049 3.92955 3.92949 2.00055 7.33049 2.00055ZM12.0495 17.8605C12.4805 17.8605 12.8395 17.5405 12.8795 17.1105V6.92055C12.9195 6.61055 12.7705 6.29955 12.5005 6.13055C12.2195 5.96055 11.8795 5.96055 11.6105 6.13055C11.3395 6.29955 11.1905 6.61055 11.2195 6.92055V17.1105C11.2705 17.5405 11.6295 17.8605 12.0495 17.8605ZM16.6505 17.8605C17.0705 17.8605 17.4295 17.5406 17.4805 17.1105V13.8305C17.5095 13.5096 17.3605 13.2105 17.0895 13.0405C16.8205 12.8706 16.4805 12.8706 16.2005 13.0405C15.9295 13.2105 15.7805 13.5096 15.8205 13.8305V17.1105C15.8605 17.5406 16.2195 17.8605 16.6505 17.8605ZM8.21949 17.1105C8.17949 17.5405 7.82049 17.8605 7.38949 17.8605C6.95949 17.8605 6.59949 17.5405 6.56049 17.1105V10.2005C6.53049 9.88955 6.67949 9.58055 6.95049 9.41055C7.21949 9.24055 7.56049 9.24055 7.83049 9.41055C8.09949 9.58055 8.25049 9.88955 8.21949 10.2005V17.1105Z" fill="#e6e7e7"/>
</svg>
