<svg width="24" height="24" viewBox="0 0 24 24" fill="none" xmlns="http://www.w3.org/2000/svg">
<path fill-rule="evenodd" clip-rule="evenodd" d="M14.4773 4.44221L21.746 17.0573C21.906 17.4339 21.976 17.7401 21.996 18.0581C22.036 18.8013 21.776 19.5237 21.2661 20.0796C20.7562 20.6335 20.0663 20.9605 19.3164 21.0001H4.6789C4.36896 20.9813 4.05901 20.9109 3.76906 20.8019C2.3193 20.2173 1.61942 18.5724 2.20932 17.1465L9.52809 4.4333C9.77804 3.9864 10.158 3.60094 10.6279 3.35322C11.9877 2.59914 13.7174 3.09459 14.4773 4.44221ZM12.8675 12.7558C12.8675 13.2315 12.4776 13.6288 11.9977 13.6288C11.5178 13.6288 11.1178 13.2315 11.1178 12.7558V9.9526C11.1178 9.47598 11.5178 9.09052 11.9977 9.09052C12.4776 9.09052 12.8675 9.47598 12.8675 9.9526V12.7558ZM11.9977 17.0177C11.5178 17.0177 11.1178 16.6204 11.1178 16.1457C11.1178 15.6691 11.5178 15.2727 11.9977 15.2727C12.4776 15.2727 12.8675 15.6602 12.8675 16.1348C12.8675 16.6204 12.4776 17.0177 11.9977 17.0177Z" fill="#e6e7e7"/>
</svg>
