<svg width="24" height="24" viewBox="0 0 24 24" fill="none" xmlns="http://www.w3.org/2000/svg">
<path d="M11.2301 7.29064V3.28163C11.2301 2.85535 11.5701 2.50012 12.0001 2.50012C12.3851 2.50012 12.7113 2.79861 12.763 3.1767L12.7701 3.28163V7.29064L17.55 7.29095C19.93 7.29095 21.8853 9.2399 21.9951 11.6705L22 11.8862V16.9255C22 19.3732 20.1127 21.3823 17.768 21.4951L17.56 21.5001H6.44C4.06 21.5001 2.11409 19.5609 2.00484 17.1214L2 16.9049L2 11.8759C2 9.42823 3.87791 7.40934 6.22199 7.29597L6.43 7.29095H11.23V13.6933L9.63 12.0411C9.33 11.7313 8.84 11.7313 8.54 12.0411C8.39 12.196 8.32 12.4025 8.32 12.6091C8.32 12.766 8.3648 12.9296 8.45952 13.0681L8.54 13.1667L11.45 16.182C11.59 16.3369 11.79 16.4195 12 16.4195C12.1667 16.4195 12.3333 16.3621 12.4653 16.2534L12.54 16.182L15.45 13.1667C15.75 12.8569 15.75 12.3509 15.45 12.0411C15.1773 11.7595 14.7475 11.7339 14.4462 11.9643L14.36 12.0411L12.77 13.6933V7.29095L11.2301 7.29064Z" fill="#e6e7e7"/>
</svg>
