<svg width="24" height="24" viewBox="0 0 24 24" fill="none" xmlns="http://www.w3.org/2000/svg">
<path fill-rule="evenodd" clip-rule="evenodd" d="M16.6653 2.01046C18.1038 1.92055 19.5224 2.42003 20.5913 3.39902C21.5703 4.46791 22.0697 5.88645 21.9898 7.33495V16.6653C22.0797 18.1138 21.5703 19.5323 20.6013 20.6012C19.5323 21.5802 18.1038 22.0797 16.6653 21.9898H7.33487C5.88636 22.0797 4.46781 21.5802 3.39891 20.6012C2.41991 19.5323 1.92043 18.1138 2.01034 16.6653V7.33495C1.92043 5.88645 2.41991 4.46791 3.39891 3.39902C4.46781 2.42003 5.88636 1.92055 7.33487 2.01046H16.6653ZM10.9811 16.8451L17.7042 10.1021C18.3136 9.48273 18.3136 8.48376 17.7042 7.87439L16.4056 6.57573C15.7862 5.95637 14.7872 5.95637 14.1679 6.57573L13.4985 7.25503C13.3986 7.35493 13.3986 7.52475 13.4985 7.62465C13.4985 7.62465 15.0869 9.20302 15.1169 9.24297C15.2268 9.36285 15.2967 9.52269 15.2967 9.7025C15.2967 10.0621 15.007 10.3618 14.6374 10.3618C14.4675 10.3618 14.3077 10.2919 14.1978 10.182L12.5295 8.52372C12.4496 8.4438 12.3098 8.4438 12.2298 8.52372L7.46474 13.2888C7.13507 13.6184 6.94527 14.058 6.93528 14.5275L6.87534 16.8951C6.87534 17.0249 6.9153 17.1448 7.00521 17.2347C7.09512 17.3246 7.21499 17.3746 7.34486 17.3746H9.69245C10.172 17.3746 10.6315 17.1848 10.9811 16.8451Z" fill="#e6e7e7"/>
</svg>
