<svg width="24" height="24" viewBox="0 0 24 24" fill="none" xmlns="http://www.w3.org/2000/svg">
<path fill-rule="evenodd" clip-rule="evenodd" d="M4.12819 2.00012H19.8718C21.0476 2.00012 22 2.98117 22 4.19238V5.72388C22 6.31145 21.7704 6.87569 21.3627 7.2872L14.8577 13.8671C14.7454 13.9817 14.5931 14.0453 14.4355 14.0443L8.98893 14.0273C8.82317 14.0273 8.66564 13.9562 8.55238 13.8321L2.57452 7.2575C2.20489 6.85129 2 6.31463 2 5.75782V4.19344C2 2.98224 2.95238 2.00012 4.12819 2.00012ZM9.2801 15.8243L14.1347 15.8391C14.4374 15.8402 14.6824 16.0937 14.6824 16.4044V19.1354C14.6824 19.4473 14.5053 19.7294 14.2294 19.8598L9.8227 21.9291C9.71974 21.9768 9.61061 22.0001 9.50147 22.0001C9.35629 22.0001 9.21112 21.9577 9.08448 21.8739C8.86311 21.7275 8.72927 21.4751 8.72927 21.2047V16.3896C8.72927 16.0767 8.97637 15.8232 9.2801 15.8243Z" fill="#e6e7e7"/>
</svg>
