<svg width="24" height="24" viewBox="0 0 24 24" fill="none" xmlns="http://www.w3.org/2000/svg">
<path fill-rule="evenodd" clip-rule="evenodd" d="M8.87774 6.37868C8.87774 8.24535 7.33886 9.75833 5.43887 9.75833C3.53999 9.75833 2 8.24535 2 6.37868C2 4.51311 3.53999 3.00012 5.43887 3.00012C7.33886 3.00012 8.87774 4.51311 8.87774 6.37868ZM20.4933 4.89845C21.3244 4.89845 22 5.56215 22 6.37868C22 7.19631 21.3244 7.86001 20.4933 7.86001H13.9178C13.0856 7.86001 12.4101 7.19631 12.4101 6.37868C12.4101 5.56215 13.0856 4.89845 13.9178 4.89845H20.4933ZM3.50777 15.9581H10.0833C10.9155 15.9581 11.5911 16.6218 11.5911 17.4394C11.5911 18.2559 10.9155 18.9207 10.0833 18.9207H3.50777C2.67555 18.9207 2 18.2559 2 17.4394C2 16.6218 2.67555 15.9581 3.50777 15.9581ZM18.5611 20.7779C20.4611 20.7779 22 19.2649 22 17.3993C22 15.5327 20.4611 14.0197 18.5611 14.0197C16.6623 14.0197 15.1223 15.5327 15.1223 17.3993C15.1223 19.2649 16.6623 20.7779 18.5611 20.7779Z" fill="#e6e7e7"/>
</svg>
