<svg width="24" height="24" viewBox="0 0 24 24" fill="none" xmlns="http://www.w3.org/2000/svg">
<path fill-rule="evenodd" clip-rule="evenodd" d="M13.45 4.88029H16.52C20.21 4.88029 22.01 6.85029 22 10.8903V15.7603C22 19.6203 19.62 22.0003 15.75 22.0003H8.24C4.39 22.0003 2 19.6203 2 15.7503V8.24029C2 4.10029 3.84 2.00029 7.47 2.00029H9.05C9.981 1.99029 10.85 2.42029 11.42 3.15029L12.3 4.32029C12.58 4.67029 13 4.88029 13.45 4.88029ZM7.37 15.2903H16.63C17.04 15.2903 17.37 14.9503 17.37 14.5403C17.37 14.1203 17.04 13.7903 16.63 13.7903H7.37C6.95 13.7903 6.62 14.1203 6.62 14.5403C6.62 14.9503 6.95 15.2903 7.37 15.2903Z" fill="#e6e7e7"/>
</svg>
