<svg width="24" height="24" viewBox="0 0 24 24" fill="none" xmlns="http://www.w3.org/2000/svg">
<path fill-rule="evenodd" clip-rule="evenodd" d="M15.8498 2.50083C16.4808 2.50083 17.1108 2.58983 17.7098 2.79083C21.4008 3.99083 22.7308 8.04083 21.6198 11.5808C20.9898 13.3898 19.9598 15.0408 18.6108 16.3898C16.6798 18.2598 14.5608 19.9198 12.2798 21.3498L12.0298 21.5008L11.7698 21.3398C9.48077 19.9198 7.34977 18.2598 5.40077 16.3798C4.06077 15.0308 3.02977 13.3898 2.38977 11.5808C1.25977 8.04083 2.58977 3.99083 6.32077 2.76983C6.61077 2.66983 6.90977 2.59983 7.20977 2.56083H7.32977C7.61077 2.51983 7.88977 2.50083 8.16977 2.50083H8.27977C8.90977 2.51983 9.51977 2.62983 10.1108 2.83083H10.1698C10.2098 2.84983 10.2398 2.87083 10.2598 2.88983C10.4808 2.96083 10.6898 3.04083 10.8898 3.15083L11.2698 3.32083C11.3616 3.3698 11.4647 3.44463 11.5537 3.5093C11.6102 3.55028 11.661 3.58717 11.6998 3.61083C11.7161 3.62046 11.7327 3.63014 11.7494 3.6399C11.8351 3.68995 11.9245 3.74209 11.9998 3.79983C13.1108 2.95083 14.4598 2.49083 15.8498 2.50083ZM18.5098 9.70083C18.9198 9.68983 19.2698 9.36083 19.2998 8.93983V8.82083C19.3298 7.41983 18.4808 6.15083 17.1898 5.66083C16.7798 5.51983 16.3298 5.74083 16.1798 6.16083C16.0398 6.58083 16.2598 7.04083 16.6798 7.18983C17.3208 7.42983 17.7498 8.06083 17.7498 8.75983V8.79083C17.7308 9.01983 17.7998 9.24083 17.9398 9.41083C18.0798 9.58083 18.2898 9.67983 18.5098 9.70083Z" fill="#e6e7e7"/>
</svg>
