<svg width="24" height="24" viewBox="0 0 24 24" fill="none" xmlns="http://www.w3.org/2000/svg">
<path fill-rule="evenodd" clip-rule="evenodd" d="M7.63739 3.39555C5.06039 3.39555 3.39539 5.16255 3.39539 7.88855V16.1025C3.39539 16.8675 3.53739 17.5505 3.78039 18.1416C3.79088 18.129 4.01974 17.8501 4.31828 17.4863C4.90176 16.7753 5.75144 15.7398 5.75739 15.7345C6.44939 14.9445 7.74839 13.7665 9.45339 14.4795C9.827 14.6345 10.1591 14.8467 10.4648 15.042C10.4946 15.061 10.5241 15.0799 10.5534 15.0985C11.1264 15.4815 11.4634 15.6615 11.8134 15.6315C11.9584 15.6115 12.0944 15.5686 12.2234 15.4886C12.71 15.1886 13.9716 13.4009 14.3494 12.8656C14.4048 12.7871 14.4412 12.7355 14.4534 12.7195C15.5434 11.2996 17.2234 10.9195 18.6234 11.7596C18.8114 11.8715 20.1584 12.8125 20.6044 13.1905V7.88855C20.6044 5.16255 18.9394 3.39555 16.3534 3.39555H7.63739ZM16.3534 2.00055C19.7304 2.00055 21.9994 4.36255 21.9994 7.88855V16.1025C21.9994 16.1912 21.9901 16.2744 21.9808 16.3575C21.9742 16.4159 21.9677 16.4743 21.9644 16.5345C21.9622 16.571 21.9612 16.6074 21.9602 16.6438C21.9588 16.6924 21.9574 16.741 21.9534 16.7895C21.9514 16.8085 21.9476 16.8268 21.9439 16.845C21.9401 16.8633 21.9364 16.8815 21.9344 16.9005C21.9014 17.2145 21.8504 17.5145 21.7794 17.8055C21.7626 17.8783 21.7432 17.9484 21.7237 18.0191L21.7194 18.0345C21.6394 18.3165 21.5454 18.5855 21.4324 18.8425C21.4126 18.8858 21.3917 18.9279 21.3708 18.97C21.3569 18.9981 21.343 19.0262 21.3294 19.0546C21.2074 19.2996 21.0754 19.5345 20.9224 19.7526C20.8941 19.7929 20.864 19.8307 20.8338 19.8686C20.8138 19.8936 20.7939 19.9187 20.7744 19.9445C20.6154 20.1505 20.4494 20.3475 20.2614 20.5265C20.2239 20.5622 20.1833 20.5949 20.1427 20.6276C20.1174 20.648 20.092 20.6684 20.0674 20.6895C19.8744 20.8555 19.6774 21.0145 19.4604 21.1505C19.413 21.1803 19.3627 21.2053 19.3126 21.2301C19.2802 21.2462 19.2478 21.2623 19.2164 21.2795C18.9954 21.4015 18.7724 21.5205 18.5294 21.6125C18.4709 21.6348 18.4087 21.6508 18.3463 21.6669C18.302 21.6784 18.2576 21.6898 18.2144 21.7035C18.1928 21.7102 18.1711 21.717 18.1495 21.7237C17.9325 21.7912 17.7161 21.8585 17.4824 21.8986C17.347 21.9223 17.2033 21.9314 17.0595 21.9405C16.9972 21.9445 16.935 21.9484 16.8734 21.9535C16.8072 21.9585 16.7422 21.9665 16.6772 21.9745C16.5715 21.9875 16.4655 22.0005 16.3534 22.0005H7.63739C7.26139 22.0005 6.90239 21.9625 6.55539 21.9056C6.54239 21.9035 6.53039 21.9016 6.51839 21.8995C5.16539 21.6665 4.04239 21.0135 3.25539 20.0285C3.24992 20.0285 3.24778 20.0249 3.24492 20.0199C3.24307 20.0168 3.24092 20.0131 3.23739 20.0096C2.44639 19.0135 1.99939 17.6745 1.99939 16.1025V7.88855C1.99939 4.36255 4.27039 2.00055 7.63739 2.00055H16.3534ZM11 8.51511C11 9.87006 9.86627 11.0001 8.50483 11.0001C7.30813 11.0001 6.28778 10.1258 6.0591 8.99378C6.02131 8.82393 5.99999 8.64925 5.99999 8.46878C5.99999 7.10418 7.10852 6.00015 8.47867 6.00015C9.17635 6.00015 9.80813 6.29353 10.2606 6.76159C10.7151 7.21324 11 7.8357 11 8.51511Z" fill="#e6e7e7"/>
</svg>
