<svg width="24" height="24" viewBox="0 0 24 24" fill="none" xmlns="http://www.w3.org/2000/svg">
<path fill-rule="evenodd" clip-rule="evenodd" d="M7.66988 1.99933H16.3399C19.7299 1.99933 21.9999 4.37933 21.9999 7.91933V16.0903C21.9999 19.6203 19.7299 21.9993 16.3399 21.9993H7.66988C4.27988 21.9993 1.99988 19.6203 1.99988 16.0903V7.91933C1.99988 4.37933 4.27988 1.99933 7.66988 1.99933ZM11.9899 9.06033C11.5199 9.06033 11.1299 8.66933 11.1299 8.19033C11.1299 7.70033 11.5199 7.31033 12.0099 7.31033C12.4899 7.31033 12.8799 7.70033 12.8799 8.19033C12.8799 8.66933 12.4899 9.06033 11.9899 9.06033ZM12.8699 15.7803C12.8699 16.2603 12.4799 16.6503 11.9899 16.6503C11.5099 16.6503 11.1199 16.2603 11.1199 15.7803V11.3603C11.1199 10.8793 11.5099 10.4803 11.9899 10.4803C12.4799 10.4803 12.8699 10.8793 12.8699 11.3603V15.7803Z" fill="#e6e7e7"/>
</svg>
