<svg width="24" height="24" viewBox="0 0 24 24" fill="none" xmlns="http://www.w3.org/2000/svg">
<path fill-rule="evenodd" clip-rule="evenodd" d="M17.5227 7.39613V8.92947C19.2451 9.46708 20.5 11.0263 20.5 12.8885V17.8254C20.5 20.1309 18.5886 22.0001 16.2322 22.0001H7.7688C5.41136 22.0001 3.5 20.1309 3.5 17.8254V12.8885C3.5 11.0263 4.75595 9.46708 6.47729 8.92947V7.39613C6.48745 4.41491 8.95667 2.00012 11.9848 2.00012C15.0535 2.00012 17.5227 4.41491 17.5227 7.39613ZM12.0051 3.73917C14.0678 3.73917 15.7445 5.37884 15.7445 7.39613V8.71383H8.25553V7.37625C8.26569 5.3689 9.94232 3.73917 12.0051 3.73917ZM12.8891 16.4551C12.8891 16.942 12.4928 17.3295 11.9949 17.3295C11.5072 17.3295 11.1109 16.942 11.1109 16.4551V14.249C11.1109 13.772 11.5072 13.3844 11.9949 13.3844C12.4928 13.3844 12.8891 13.772 12.8891 14.249V16.4551Z" fill="#e6e7e7"/>
</svg>
