<svg width="24" height="24" viewBox="0 0 24 24" fill="none" xmlns="http://www.w3.org/2000/svg">
<path fill-rule="evenodd" clip-rule="evenodd" d="M11.8861 2.00012H16.9254C19.445 2.00012 21.5 4.00012 21.5 6.44012V17.5601C21.5 20.0101 19.445 22.0001 16.9047 22.0001H11.8758C9.35611 22.0001 7.29083 20.0101 7.29083 17.5701V12.7701H13.6932L12.041 14.3701C11.7312 14.6701 11.7312 15.1601 12.041 15.4601C12.1959 15.6101 12.4024 15.6801 12.6089 15.6801C12.8051 15.6801 13.0117 15.6101 13.1666 15.4601L16.1819 12.5501C16.3368 12.4101 16.4194 12.2101 16.4194 12.0001C16.4194 11.8001 16.3368 11.6001 16.1819 11.4601L13.1666 8.55012C12.8568 8.25012 12.3508 8.25012 12.041 8.55012C11.7312 8.85012 11.7312 9.34012 12.041 9.64012L13.6932 11.2301H7.29083V6.45012C7.29083 4.00012 9.35611 2.00012 11.8861 2.00012ZM2.5 12C2.5 11.58 2.85523 11.23 3.2815 11.23H7.29052V12.77H3.2815C2.85523 12.77 2.5 12.43 2.5 12Z" fill="#e6e7e7"/>
</svg>
