<svg width="24" height="24" viewBox="0 0 24 24" fill="none" xmlns="http://www.w3.org/2000/svg">
<path fill-rule="evenodd" clip-rule="evenodd" d="M12.1535 16.6401L14.995 13.7701C15.2822 13.4701 15.2822 13.0001 14.9851 12.7101C14.698 12.4201 14.2327 12.4201 13.9455 12.7101L12.3713 14.3101V9.49012C12.3713 9.07012 12.0446 8.74012 11.6386 8.74012C11.2327 8.74012 10.896 9.07012 10.896 9.49012V14.3101L9.32178 12.7101C9.03465 12.4201 8.56931 12.4201 8.28218 12.7101C7.99505 13.0001 7.99505 13.4701 8.28218 13.7701L11.1139 16.6401C11.1832 16.7101 11.2624 16.7601 11.3515 16.8001C11.4406 16.8401 11.5396 16.8601 11.6386 16.8601C11.7376 16.8601 11.8267 16.8401 11.9158 16.8001C12.005 16.7601 12.0842 16.7101 12.1535 16.6401ZM19.3282 9.02573C19.5609 9.02305 19.8143 9.02012 20.0446 9.02012C20.302 9.02012 20.5 9.22012 20.5 9.47012V17.5101C20.5 19.9901 18.5 22.0001 16.0446 22.0001H8.17327C5.58911 22.0001 3.5 19.8901 3.5 17.2901V6.51012C3.5 4.03012 5.4901 2.00012 7.96535 2.00012H13.2525C13.5 2.00012 13.7079 2.21012 13.7079 2.46012V5.68012C13.7079 7.51012 15.1931 9.01012 17.0149 9.02012C17.4333 9.02012 17.8077 9.0233 18.1346 9.02607C18.3878 9.02822 18.6125 9.03012 18.8069 9.03012C18.9479 9.03012 19.1306 9.02801 19.3282 9.02573ZM19.6045 7.56622C18.7916 7.56922 17.8322 7.56622 17.1421 7.55922C16.047 7.55922 15.145 6.64822 15.145 5.54222V2.90622C15.145 2.47522 15.6629 2.26122 15.9579 2.57222C16.7203 3.37211 17.8873 4.59793 18.8738 5.63408C19.2735 6.05391 19.6436 6.44261 19.945 6.75922C20.2342 7.06222 20.0223 7.56522 19.6045 7.56622Z" fill="#e6e7e7"/>
</svg>
