<svg width="24" height="24" viewBox="0 0 24 24" fill="none" xmlns="http://www.w3.org/2000/svg">
<path fill-rule="evenodd" clip-rule="evenodd" d="M17.0108 14.6013C17.4248 14.6013 17.7608 14.2653 17.7608 13.8513V11.9993C17.7608 11.5853 17.4248 11.2493 17.0108 11.2493H11.3188C10.9948 10.1823 10.0128 9.39833 8.84076 9.39833C7.40676 9.39833 6.23976 10.5653 6.23976 11.9993C6.23976 13.4343 7.40676 14.6013 8.84076 14.6013C10.0128 14.6013 10.9948 13.8173 11.3188 12.7493H13.4308V13.8513C13.4308 14.2653 13.7668 14.6013 14.1808 14.6013C14.5948 14.6013 14.9308 14.2653 14.9308 13.8513V12.7493H16.2608V13.8513C16.2608 14.2653 16.5968 14.6013 17.0108 14.6013ZM7.66576 1.99933H16.3348C19.7228 1.99933 21.9998 4.37733 21.9998 7.91633V16.0833C21.9998 19.6223 19.7228 21.9993 16.3338 21.9993H7.66576C4.27676 21.9993 1.99976 19.6223 1.99976 16.0833V7.91633C1.99976 4.37733 4.27676 1.99933 7.66576 1.99933ZM7.73886 12.0002C7.73886 11.3922 8.23386 10.8982 8.84086 10.8982C9.44786 10.8982 9.94286 11.3922 9.94286 12.0002C9.94286 12.6072 9.44786 13.1012 8.84086 13.1012C8.23386 13.1012 7.73886 12.6072 7.73886 12.0002Z" fill="#e6e7e7"/>
</svg>
