<svg width="24" height="24" viewBox="0 0 24 24" fill="none" xmlns="http://www.w3.org/2000/svg">
<path fill-rule="evenodd" clip-rule="evenodd" d="M2 12.0059C2 6.48637 6.48842 2.00012 12 2.00012C17.5116 2.00012 22 6.48637 22 12.0059C22 17.5139 17.5116 22.0001 12 22.0001C6.48842 22.0001 2 17.5139 2 12.0059ZM15.668 13.018C15.7741 12.9118 15.9093 12.7478 15.9382 12.7092C16.0927 12.5066 16.1699 12.2558 16.1699 12.0059C16.1699 11.7252 16.083 11.4647 15.9189 11.2524C15.9055 11.239 15.8791 11.2103 15.8448 11.173C15.7806 11.1031 15.6885 11.0028 15.6004 10.9147C14.8089 10.0657 12.7432 8.67644 11.6622 8.25193C11.4981 8.18536 11.083 8.03968 10.861 8.03003C10.6486 8.03003 10.4459 8.07827 10.2529 8.17475C10.0116 8.30982 9.81853 8.52207 9.71236 8.77291C9.64479 8.94658 9.53861 9.46756 9.53861 9.47721C9.43243 10.0464 9.37452 10.9726 9.37452 11.9953C9.37452 12.9707 9.43243 13.8573 9.51931 14.4362C9.52169 14.4386 9.53 14.48 9.5429 14.5443C9.58211 14.7398 9.6638 15.1472 9.75097 15.3142C9.96332 15.7194 10.3784 15.9702 10.8224 15.9702H10.861C11.1506 15.9606 11.7587 15.7097 11.7587 15.7001C12.7819 15.2756 14.7992 13.9538 15.61 13.0759L15.668 13.018Z" fill="#e6e7e7"/>
</svg>
