<svg width="24" height="24" viewBox="0 0 24 24" fill="none" xmlns="http://www.w3.org/2000/svg">
<path fill-rule="evenodd" clip-rule="evenodd" d="M8.4277 3.00012C8.8477 3.00012 9.1887 3.33451 9.1887 3.74734C9.1887 4.15919 8.8487 4.49358 8.4277 4.49358L6.7987 4.49456C5.4467 4.49652 4.3467 5.57616 4.3467 6.90291V8.76213C4.3467 9.17398 4.0047 9.50935 3.5847 9.50935C3.1647 9.50935 2.8237 9.17398 2.8237 8.76213V6.90291C2.8237 4.75344 4.6067 3.00306 6.7977 3.0011L8.4267 3.00012H8.4277ZM15.6006 3.00042H17.1936C19.3906 3.00042 21.1766 4.75177 21.1766 6.90615V8.76242C21.1766 9.17428 20.8366 9.50964 20.4156 9.50964C19.9956 9.50964 19.6546 9.17428 19.6546 8.76242V6.90615C19.6546 5.57547 18.5506 4.49289 17.1936 4.49289H15.6006C15.1806 4.49289 14.8396 4.15949 14.8396 3.74763C14.8396 3.3348 15.1806 3.00042 15.6006 3.00042ZM14.7625 6.74278H9.2385C7.9745 6.75553 6.9585 7.76849 6.9695 9.00895V10.2543C6.9725 10.3994 7.0915 10.5181 7.2395 10.523H16.7595C16.9085 10.5191 17.0275 10.4004 17.0325 10.2543V9.00895C17.0335 8.4098 16.7975 7.83419 16.3715 7.40567C15.9485 6.98107 15.3675 6.74278 14.7625 6.74278ZM1.762 12.0414H22.239C22.659 12.0414 23 12.3757 23 12.7886C23 13.2004 22.659 13.5338 22.239 13.5338H21.177V17.0934C21.177 19.2488 19.39 21.0001 17.194 21.0001H15.601C15.18 21.0001 14.839 20.6657 14.839 20.2529C14.839 19.8411 15.18 19.5067 15.601 19.5067H17.194C18.551 19.5067 19.655 18.4251 19.655 17.0934V13.5338H17.032V14.5252C17.042 15.7657 16.027 16.7796 14.762 16.7914H9.238C7.974 16.7796 6.959 15.7657 6.969 14.5252V13.5338H4.346V17.0973C4.346 18.4241 5.447 19.5037 6.8 19.5057L8.428 19.5067C8.848 19.5067 9.189 19.8411 9.189 20.2529C9.188 20.6657 8.848 21.0001 8.427 21.0001L6.798 20.9991C4.607 20.9972 2.823 19.2468 2.823 17.0973V13.5338H1.762C1.342 13.5338 1 13.2004 1 12.7886C1 12.3757 1.342 12.0414 1.762 12.0414Z" fill="#e6e7e7"/>
</svg>
