<svg width="24" height="24" viewBox="0 0 24 24" fill="none" xmlns="http://www.w3.org/2000/svg">
<path fill-rule="evenodd" clip-rule="evenodd" d="M11.7281 21.9138C11.8388 21.9716 11.9627 22.0011 12.0865 22.0001C12.2103 21.9991 12.3331 21.9687 12.4449 21.9099L16.0128 20.0026C17.0245 19.4633 17.8168 18.8602 18.435 18.1581C19.779 16.6283 20.5129 14.6759 20.4998 12.6628L20.4575 6.0221C20.4535 5.25723 19.9511 4.57473 19.2082 4.32664L12.5707 2.09969C12.1711 1.96436 11.7331 1.9673 11.3405 2.10655L4.72824 4.41293C3.9893 4.67083 3.496 5.35824 3.50002 6.12409L3.54231 12.7598C3.5554 14.776 4.31448 16.7195 5.68062 18.2336C6.3048 18.9259 7.10415 19.5201 8.12699 20.0506L11.7281 21.9138ZM10.7836 14.1091C10.9326 14.2522 11.1259 14.3228 11.3192 14.3209C11.5125 14.3199 11.7047 14.2473 11.8517 14.1022L15.7508 10.2582C16.0438 9.96894 16.0408 9.50413 15.7448 9.21878C15.4478 8.93342 14.9696 8.93538 14.6766 9.22466L11.3081 12.545L9.92885 11.2192C9.63186 10.9339 9.15467 10.9368 8.8607 11.2261C8.56774 11.5154 8.57076 11.9802 8.86775 12.2655L10.7836 14.1091Z" fill="#e6e7e7"/>
</svg>
