<svg width="24" height="24" viewBox="0 0 24 24" fill="none" xmlns="http://www.w3.org/2000/svg">
<path fill-rule="evenodd" clip-rule="evenodd" d="M8.09756 12.0001C8.09756 14.1335 9.8439 15.8692 12 15.8692C14.1463 15.8692 15.8927 14.1335 15.8927 12.0001C15.8927 9.85709 14.1463 8.12133 12 8.12133C9.8439 8.12133 8.09756 9.85709 8.09756 12.0001ZM17.7366 6.04618C19.4439 7.36497 20.8976 9.29467 21.9415 11.7092C22.0195 11.8935 22.0195 12.1068 21.9415 12.2813C19.8537 17.1104 16.1366 20.0001 12 20.0001H11.9902C7.86341 20.0001 4.14634 17.1104 2.05854 12.2813C1.98049 12.1068 1.98049 11.8935 2.05854 11.7092C4.14634 6.88012 7.86341 4.00012 11.9902 4.00012H12C14.0683 4.00012 16.0293 4.7177 17.7366 6.04618ZM12.0012 14.4125C13.3378 14.4125 14.4304 13.3265 14.4304 11.998C14.4304 10.6598 13.3378 9.57375 12.0012 9.57375C11.8841 9.57375 11.767 9.58344 11.6597 9.60284C11.6207 10.6695 10.7426 11.5228 9.65971 11.5228H9.61093C9.58166 11.678 9.56215 11.8331 9.56215 11.998C9.56215 13.3265 10.6548 14.4125 12.0012 14.4125Z" fill="#e6e7e7"/>
</svg>
