<svg width="24" height="24" viewBox="0 0 24 24" fill="none" xmlns="http://www.w3.org/2000/svg">
<path fill-rule="evenodd" clip-rule="evenodd" d="M7.67012 2H16.3401C19.7301 2 22.0001 4.38 22.0001 7.92V16.091C22.0001 19.62 19.7301 22 16.3401 22H7.67012C4.28012 22 2.00012 19.62 2.00012 16.091V7.92C2.00012 4.38 4.28012 2 7.67012 2ZM11.4301 14.99L16.1801 10.24C16.5201 9.9 16.5201 9.35 16.1801 9C15.8401 8.66 15.2801 8.66 14.9401 9L10.8101 13.13L9.06012 11.38C8.72012 11.04 8.16012 11.04 7.82012 11.38C7.48012 11.72 7.48012 12.27 7.82012 12.62L10.2001 14.99C10.3701 15.16 10.5901 15.24 10.8101 15.24C11.0401 15.24 11.2601 15.16 11.4301 14.99Z" fill="#e6e7e7"/>
</svg>
