<svg width="24" height="24" viewBox="0 0 24 24" fill="none" xmlns="http://www.w3.org/2000/svg">
<path fill-rule="evenodd" clip-rule="evenodd" d="M19.761 12.0011C19.761 12.8146 20.429 13.4765 21.25 13.4765C21.664 13.4765 22 13.8094 22 14.2197V16.896C22 19.1591 20.142 21.0001 17.858 21.0001H6.143C3.859 21.0001 2 19.1591 2 16.896V14.2197C2 13.8094 2.336 13.4765 2.75 13.4765C3.572 13.4765 4.24 12.8146 4.24 12.0011C4.24 11.2084 3.599 10.6119 2.75 10.6119C2.551 10.6119 2.361 10.5336 2.22 10.3939C2.079 10.2542 2 10.065 2 9.86878L2.002 7.10526C2.002 4.84213 3.86 3.00012 6.144 3.00012H17.856C20.14 3.00012 21.999 4.84213 21.999 7.10526L22 9.78257C22 9.97876 21.921 10.169 21.781 10.3077C21.64 10.4474 21.45 10.5257 21.25 10.5257C20.429 10.5257 19.761 11.1876 19.761 12.0011ZM14.252 12.6481L15.431 11.5106C15.636 11.3144 15.707 11.0251 15.618 10.7576C15.53 10.49 15.3 10.2998 15.022 10.2612L13.393 10.0253L12.664 8.56282C12.539 8.31114 12.285 8.15459 12.002 8.1536H12C11.718 8.1536 11.464 8.31015 11.337 8.56183L10.608 10.0253L8.982 10.2602C8.701 10.2998 8.471 10.49 8.382 10.7576C8.294 11.0251 8.365 11.3144 8.569 11.5106L9.748 12.6481L9.47 14.2563C9.422 14.5338 9.535 14.8092 9.765 14.9747C9.895 15.0668 10.046 15.1144 10.199 15.1144C10.316 15.1144 10.434 15.0857 10.542 15.0292L12 14.2702L13.455 15.0272C13.707 15.161 14.006 15.1402 14.235 14.9737C14.466 14.8092 14.579 14.5338 14.531 14.2563L14.252 12.6481Z" fill="#e6e7e7"/>
</svg>
