<svg width="24" height="24" viewBox="0 0 24 24" fill="none" xmlns="http://www.w3.org/2000/svg">
<path fill-rule="evenodd" clip-rule="evenodd" d="M21.7872 10.5392C21.6518 10.6707 21.4681 10.7459 21.2747 10.7459C20.559 10.7459 19.9787 11.3096 19.9787 11.9954C19.9787 12.686 20.5522 13.2469 21.2611 13.2544C21.6605 13.2581 22 13.5287 22 13.9167V16.3266C22 18.355 20.3075 20.0001 18.2186 20.0001H15.0658C14.7398 20.0001 14.4758 19.7436 14.4758 19.427V17.3977C14.4758 17.0031 14.1567 16.693 13.7505 16.693C13.354 16.693 13.0251 17.0031 13.0251 17.3977V19.427C13.0251 19.7436 12.7611 20.0001 12.4362 20.0001H5.78143C3.70213 20.0001 2 18.356 2 16.3266V13.9167C2 13.5287 2.33946 13.2581 2.73888 13.2544C3.44874 13.2469 4.02128 12.686 4.02128 11.9954C4.02128 11.3284 3.46035 10.821 2.72534 10.821C2.53191 10.821 2.34816 10.7459 2.21277 10.6143C2.07737 10.4828 2 10.3043 2 10.1164V7.68303C2 5.65743 3.706 4.00012 5.7911 4.00012H12.4362C12.7611 4.00012 13.0251 4.25661 13.0251 4.57323V6.9784C13.0251 7.3636 13.354 7.68303 13.7505 7.68303C14.1567 7.68303 14.4758 7.3636 14.4758 6.9784V4.57323C14.4758 4.25661 14.7398 4.00012 15.0658 4.00012H18.2186C20.3075 4.00012 22 5.64428 22 7.67364V10.0412C22 10.2291 21.9226 10.4076 21.7872 10.5392ZM13.7505 14.8704C14.1567 14.8704 14.4758 14.5509 14.4758 14.1657V10.4076C14.4758 10.0224 14.1567 9.703 13.7505 9.703C13.354 9.703 13.0251 10.0224 13.0251 10.4076V14.1657C13.0251 14.5509 13.354 14.8704 13.7505 14.8704Z" fill="#e6e7e7"/>
</svg>
