<svg width="24" height="24" viewBox="0 0 24 24" fill="none" xmlns="http://www.w3.org/2000/svg">
<path fill-rule="evenodd" clip-rule="evenodd" d="M7.67 2.00024H16.34C19.73 2.00024 22 4.37924 22 7.91924V16.0892C22 19.6202 19.73 22.0002 16.34 22.0002H7.67C4.28 22.0002 2 19.6202 2 16.0892V7.91924C2 4.37924 4.28 2.00024 7.67 2.00024ZM15.58 15.8102C15.83 15.8102 16.08 15.6802 16.22 15.4402C16.44 15.0892 16.32 14.6292 15.96 14.4102L12.4 12.2902V7.66924C12.4 7.26024 12.07 6.91924 11.65 6.91924C11.24 6.91924 10.9 7.26024 10.9 7.66924V12.7202C10.9 12.9802 11.04 13.2302 11.27 13.3602L15.19 15.7002C15.31 15.7802 15.45 15.8102 15.58 15.8102Z" fill="#e6e7e7"/>
</svg>
