<svg width="24" height="24" viewBox="0 0 24 24" fill="none" xmlns="http://www.w3.org/2000/svg">
<path fill-rule="evenodd" clip-rule="evenodd" d="M12 22.0002C6.48 22.0002 2 17.5302 2 12.0002C2 6.48024 6.48 2.00024 12 2.00024C17.53 2.00024 22 6.48024 22 12.0002C22 17.5302 17.53 22.0002 12 22.0002ZM15.19 15.7102C15.31 15.7802 15.44 15.8202 15.58 15.8202C15.83 15.8202 16.08 15.6902 16.22 15.4502C16.43 15.1002 16.32 14.6402 15.96 14.4202L12.4 12.3002V7.68024C12.4 7.26024 12.06 6.93024 11.65 6.93024C11.24 6.93024 10.9 7.26024 10.9 7.68024V12.7302C10.9 12.9902 11.04 13.2302 11.27 13.3702L15.19 15.7102Z" fill="#e6e7e7"/>
</svg>
