<svg width="24" height="24" viewBox="0 0 24 24" fill="none" xmlns="http://www.w3.org/2000/svg">
<path fill-rule="evenodd" clip-rule="evenodd" d="M6.11304 4.50012H11.9051C14.3271 4.50012 16.0181 6.16916 16.0181 8.56104V15.4392C16.0181 17.8311 14.3271 19.5001 11.9051 19.5001H6.11304C3.69102 19.5001 2 17.8311 2 15.4392V8.56104C2 6.16916 3.69102 4.50012 6.11304 4.50012ZM19.958 6.87911C20.397 6.65576 20.912 6.67911 21.331 6.94307C21.75 7.20601 22 7.66286 22 8.16236V15.8385C22 16.339 21.75 16.7948 21.331 17.0578C21.102 17.2009 20.846 17.274 20.588 17.274C20.373 17.274 20.158 17.2233 19.957 17.1207L18.476 16.3735C17.928 16.0954 17.588 15.537 17.588 14.9167V9.08317C17.588 8.46185 17.928 7.90347 18.476 7.62733L19.958 6.87911Z" fill="#e6e7e7"/>
</svg>
