<svg width="24" height="24" viewBox="0 0 24 24" fill="none" xmlns="http://www.w3.org/2000/svg">
<path fill-rule="evenodd" clip-rule="evenodd" d="M12.1748 15.2175H11.825C9.42166 15.2175 7.47358 13.2928 7.47358 10.9205V6.29719C7.47358 3.92385 9.42166 2.00012 11.825 2.00012H12.1748C14.5781 2.00012 16.5272 3.92385 16.5272 6.29719V10.9205C16.5272 13.2928 14.5781 15.2175 12.1748 15.2175ZM18.5626 10.783C18.5626 10.254 18.9966 9.82638 19.5313 9.82638C20.066 9.82638 20.5 10.254 20.5 10.783C20.5 15.0867 17.2006 18.6405 12.9692 19.1179V21.0435C12.9692 21.5716 12.5352 22.0001 12.0005 22.0001C11.4648 22.0001 11.0318 21.5716 11.0318 21.0435V19.1179C6.79945 18.6405 3.5 15.0867 3.5 10.783C3.5 10.254 3.93398 9.82638 4.46872 9.82638C5.00345 9.82638 5.43743 10.254 5.43743 10.783C5.43743 14.3559 8.38136 17.263 12.0005 17.263C15.6186 17.263 18.5626 14.3559 18.5626 10.783Z" fill="#e6e7e7"/>
</svg>
