<svg width="24" height="24" viewBox="0 0 24 24" fill="none" xmlns="http://www.w3.org/2000/svg">
<path fill-rule="evenodd" clip-rule="evenodd" d="M12.1748 15.2166H11.825C9.42166 15.2166 7.47358 13.2929 7.47358 10.9205V6.29721C7.47358 3.92386 9.42166 2.00012 11.825 2.00012H12.1748C14.1693 2.00012 15.8501 3.32407 16.3645 5.1311C16.4352 5.37886 16.2482 5.62471 15.9886 5.62471H14.8562C14.5142 5.62471 14.2362 5.8983 14.2362 6.23598V6.23694C14.2362 6.57558 14.5142 6.84917 14.8562 6.84917H15.9004C16.2463 6.84917 16.5272 7.12563 16.5272 7.46714C16.5272 7.80865 16.2463 8.08511 15.9004 8.08511H14.8562C14.5142 8.08511 14.2362 8.35965 14.2362 8.69829C14.2362 9.03598 14.5142 9.31052 14.8562 9.31052H15.9004C16.2463 9.31052 16.5272 9.58698 16.5272 9.92945C16.5272 10.27 16.2463 10.5465 15.9004 10.5465H14.8562C14.5142 10.5465 14.2362 10.821 14.2362 11.1596C14.2362 11.4973 14.5142 11.7709 14.8562 11.7709H15.9334C16.1988 11.7709 16.3887 12.0273 16.3054 12.276C15.7309 13.9845 14.0996 15.2166 12.1748 15.2166ZM18.5626 10.7829C18.5626 10.2539 18.9966 9.82633 19.5313 9.82633C20.066 9.82633 20.5 10.2539 20.5 10.7829C20.5 15.0867 17.2006 18.6405 12.9692 19.1179V21.0435C12.9692 21.5716 12.5352 22.0001 12.0005 22.0001C11.4648 22.0001 11.0318 21.5716 11.0318 21.0435V19.1179C6.79945 18.6405 3.5 15.0867 3.5 10.7829C3.5 10.2539 3.93398 9.82633 4.46872 9.82633C5.00345 9.82633 5.43743 10.2539 5.43743 10.7829C5.43743 14.3559 8.38136 17.263 12.0005 17.263C15.6186 17.263 18.5626 14.3559 18.5626 10.7829Z" fill="#e6e7e7"/>
</svg>
