<svg width="24" height="24" viewBox="0 0 24 24" fill="none" xmlns="http://www.w3.org/2000/svg">
<path fill-rule="evenodd" clip-rule="evenodd" d="M15.1396 4.95623C15.2687 5.45975 15.3212 5.96434 15.3716 6.45068L15.4188 6.89301C15.5994 8.36921 15.5994 15.6214 15.4188 17.1083L15.3716 17.5667L15.3707 17.5753C15.3259 18.0354 15.2794 18.5114 15.1469 19.0193C14.7952 20.2207 13.8577 21.0001 12.7932 21.0001C12.7596 21.0001 12.726 21.0001 12.6882 20.999C12.1003 20.999 11.461 20.6383 11.0988 20.3237L7.56822 17.3832H5.75517C4.35575 17.3832 3.33112 16.3707 3.1453 14.8044C2.93114 13.238 2.97313 10.5508 3.1453 9.12717C3.34792 7.64453 4.42084 6.61709 5.75517 6.61709H7.56822L11.0316 3.71944C11.4494 3.35657 12.1864 2.99798 12.7691 3.00013C13.8136 3.00013 14.7879 3.75165 15.1396 4.95623ZM18.1476 6.25851C18.5665 5.96542 19.1397 6.07063 19.4263 6.4947C20.4404 7.98808 21 9.9431 21 12.0001C21 14.0571 20.4404 16.0122 19.4263 17.5055C19.2541 17.7578 18.9728 17.9092 18.6715 17.9092C18.4836 17.9092 18.3019 17.8512 18.1476 17.7417C17.7319 17.4454 17.629 16.8592 17.9177 16.4341C18.7208 15.251 19.1628 13.676 19.1628 12.0001C19.1628 10.3232 18.7208 8.74926 17.9177 7.56615C17.629 7.14101 17.7319 6.55482 18.1476 6.25851Z" fill="#e6e7e7"/>
</svg>
