<svg width="24" height="24" viewBox="0 0 24 24" fill="none" xmlns="http://www.w3.org/2000/svg">
<path fill-rule="evenodd" clip-rule="evenodd" d="M13.3571 6.45068C13.3068 5.96434 13.2543 5.45975 13.1254 4.95623C12.7741 3.75165 11.801 3.00013 10.7576 3.00013C10.1757 2.99798 9.43954 3.35657 9.0222 3.71944L5.56287 6.61709H3.75194C2.41918 6.61709 1.34751 7.64453 1.14513 9.12717C0.973161 10.5508 0.931217 13.238 1.14513 14.8044C1.33073 16.3707 2.35416 17.3832 3.75194 17.3832H5.56287L9.08931 20.3237C9.45107 20.6383 10.0897 20.999 10.6769 20.999C10.7146 21.0001 10.7482 21.0001 10.7817 21.0001C11.845 21.0001 12.7814 20.2207 13.1327 19.0193C13.265 18.5114 13.3114 18.0354 13.3563 17.5753L13.3571 17.5667L13.4043 17.1083C13.5846 15.6214 13.5846 8.36921 13.4043 6.89301L13.3571 6.45068ZM17.4066 6.4947C17.1182 6.06955 16.5467 5.96327 16.1283 6.25851C15.7141 6.5559 15.6114 7.14208 15.8997 7.56615C16.7019 8.74819 17.1434 10.3221 17.1434 12.0001C17.1434 13.6771 16.7019 15.2521 15.8997 16.4341C15.6114 16.8582 15.7141 17.4443 16.1294 17.7417C16.2846 17.8512 16.466 17.9092 16.6526 17.9092C16.9536 17.9092 17.2346 17.7578 17.4066 17.5055C18.4195 16.0132 18.9784 14.0582 18.9784 12.0001C18.9784 9.94203 18.4195 7.987 17.4066 6.4947ZM19.2901 3.22119C19.7074 2.92487 20.281 3.03331 20.5673 3.45738C22.136 5.76669 23 8.80176 23 12C23 15.2004 22.136 18.2344 20.5673 20.5437C20.3963 20.796 20.1143 20.9474 19.8133 20.9474C19.6267 20.9474 19.4463 20.8894 19.2911 20.7799C18.8759 20.4825 18.7731 19.8974 19.0604 19.4723C20.4173 17.4732 21.165 14.8193 21.165 12C21.165 9.18181 20.4173 6.52787 19.0604 4.52883C18.7731 4.10476 18.8759 3.51857 19.2901 3.22119Z" fill="#e6e7e7"/>
</svg>
