<svg width="24" height="24" viewBox="0 0 24 24" fill="none" xmlns="http://www.w3.org/2000/svg">
<path fill-rule="evenodd" clip-rule="evenodd" d="M20.4201 3.27097C20.7801 2.91108 21.3538 2.90896 21.7275 3.26991C22.0906 3.63298 22.0906 4.21939 21.7286 4.58139L4.57987 21.7291C4.40943 21.8996 4.16383 22.0001 3.92458 22.0001C3.69062 22.0001 3.45984 21.9049 3.27352 21.7323C2.90936 21.3544 2.90936 20.7797 3.27035 20.4187L6.09689 17.5925H6.0683C4.65927 17.5925 3.63346 16.5975 3.4429 15.0521C3.23012 13.5067 3.27247 10.8604 3.4429 9.45263C3.64299 7.99189 4.72385 6.98737 6.0683 6.98737H7.89867L11.3921 4.12941C11.8167 3.76952 12.5683 3.42974 13.1495 3.42022C14.2081 3.42022 15.182 4.16011 15.5314 5.34563C15.669 5.84419 15.723 6.34063 15.7653 6.81801L15.849 7.4944C15.8627 7.59813 15.8754 7.69763 15.886 7.80348L20.4201 3.27097ZM14.8809 13.7315C15.0238 13.5918 15.3435 13.4912 15.4874 13.5283C15.876 13.6267 15.9522 14.1846 15.9458 14.6228C15.9278 15.8951 15.8855 16.78 15.8177 17.3273L15.7701 17.7782L15.7693 17.7865C15.724 18.2401 15.6772 18.7096 15.5425 19.2103C15.19 20.3937 14.2446 21.1622 13.1701 21.1622C13.1352 21.1622 13.1002 21.1622 13.0642 21.1612C12.4704 21.1612 11.8267 20.8055 11.4615 20.4954L10.1604 19.4887C9.66605 19.1214 9.81214 18.535 10.0895 18.1952C10.2966 17.9423 12.786 15.657 14.0935 14.4567C14.5369 14.0497 14.8444 13.7674 14.8809 13.7315Z" fill="#e6e7e7"/>
</svg>
