<svg width="24" height="24" viewBox="0 0 24 24" fill="none" xmlns="http://www.w3.org/2000/svg">
<path fill-rule="evenodd" clip-rule="evenodd" d="M10.7044 3.5191C10.034 3.5191 9.46373 3.98492 9.30365 4.61277H14.6863C14.5263 3.98492 13.956 3.5191 13.2856 3.5191H10.7044ZM16.2071 4.61277H18.1881C20.2891 4.61277 22 6.3444 22 8.47098C22 8.47098 21.94 9.37122 21.92 10.6249C21.918 10.7241 21.8699 10.8213 21.7909 10.8801C21.3097 11.2355 20.8694 11.5292 20.8294 11.5494C19.1686 12.6634 17.2386 13.4472 15.1826 13.837C15.0485 13.8634 14.9165 13.7935 14.8484 13.674C14.2721 12.6755 13.1956 12.0254 11.995 12.0254C10.8024 12.0254 9.71586 12.6684 9.12256 13.6679C9.05353 13.7854 8.92346 13.8532 8.7904 13.8279C6.75138 13.437 4.82141 12.6542 3.17059 11.5596L2.21011 10.8912C2.13007 10.8406 2.08004 10.7494 2.08004 10.6482C2.05003 10.1317 2 8.47098 2 8.47098C2 6.3444 3.71086 4.61277 5.81191 4.61277H7.78289C7.97299 3.14442 9.2036 2.00012 10.7044 2.00012H13.2856C14.7864 2.00012 16.017 3.14442 16.2071 4.61277ZM21.6598 12.8154L21.6198 12.8356C19.5988 14.1926 17.1676 15.0938 14.6163 15.4685C14.2561 15.5191 13.8959 15.2862 13.7959 14.9217C13.5758 14.0913 12.8654 13.5445 12.015 13.5445H12.005H11.985C11.1346 13.5445 10.4242 14.0913 10.2041 14.9217C10.1041 15.2862 9.74387 15.5191 9.38369 15.4685C6.83242 15.0938 4.4012 14.1926 2.38019 12.8356C2.37019 12.8255 2.27014 12.7647 2.1901 12.8154C2.10005 12.866 2.10005 12.9875 2.10005 12.9875L2.17009 18.152C2.17009 20.2786 3.87094 22.0001 5.97199 22.0001H18.018C20.1191 22.0001 21.8199 20.2786 21.8199 18.152L21.9 12.9875C21.9 12.9875 21.9 12.866 21.8099 12.8154C21.7599 12.785 21.6999 12.7951 21.6598 12.8154ZM12.7454 17.0584C12.7454 17.4837 12.4152 17.8179 11.995 17.8179C11.5848 17.8179 11.2446 17.4837 11.2446 17.0584V15.7521C11.2446 15.3369 11.5848 14.9926 11.995 14.9926C12.4152 14.9926 12.7454 15.3369 12.7454 15.7521V17.0584Z" fill="#e6e7e7"/>
</svg>
